<svg width="179" height="15" viewBox="0 0 179 15" fill="none" xmlns="http://www.w3.org/2000/svg">
<path d="M12.4395 8.528H7.36355L9.84755 3.506L12.4395 8.528ZM15.2475 14H19.7655L12.6015 0.608H7.16555L0.397547 14H4.66355L5.86955 11.552H13.9875L15.2475 14ZM20.5026 14H29.3946C37.2246 14 38.8266 10.364 38.8266 7.484V6.944C38.8266 3.938 37.1346 0.608 29.3766 0.608H20.5026V14ZM24.6966 3.776H29.0526C33.8766 3.776 34.4346 5.846 34.4346 7.214V7.322C34.4346 8.69 33.8046 10.778 29.0526 10.778H24.6966V3.776ZM40.2604 14H49.1524C56.9824 14 58.5844 10.364 58.5844 7.484V6.944C58.5844 3.938 56.8924 0.608 49.1344 0.608H40.2604V14ZM44.4544 3.776H48.8104C53.6344 3.776 54.1924 5.846 54.1924 7.214V7.322C54.1924 8.69 53.5624 10.778 48.8104 10.778H44.4544V3.776ZM70.7933 14H75.0233V3.776H80.8013V0.608H65.0333V3.776H70.7933V14ZM90.6719 0.373999C82.1939 0.373999 81.2399 4.604 81.2399 6.998V7.538C81.2399 9.896 82.1939 14.234 90.6719 14.234H91.4459C99.8879 14.234 100.86 9.896 100.86 7.538V6.998C100.86 4.604 99.8699 0.373999 91.4459 0.373999H90.6719ZM96.4679 7.376C96.4679 8.924 95.5499 10.976 91.0499 10.976C86.5139 10.976 85.6319 8.87 85.6319 7.34V7.124C85.6319 5.594 86.4419 3.614 91.0499 3.614C95.5859 3.614 96.4679 5.594 96.4679 7.124V7.376ZM117.063 14.234C124.713 14.234 126.045 10.49 126.045 8.798V8.6H121.599C121.491 8.906 121.059 10.976 116.721 10.976C112.815 10.976 111.753 8.888 111.753 7.304V7.088C111.753 5.414 112.671 3.614 116.685 3.614C120.933 3.614 121.473 5.486 121.581 5.846H126.027V5.648C126.027 4.082 124.821 0.373999 117.063 0.373999H116.325C108.405 0.373999 107.361 4.568 107.361 6.998V7.52C107.361 9.896 108.567 14.234 116.325 14.234H117.063ZM137.367 8.528H132.291L134.775 3.506L137.367 8.528ZM140.175 14H144.693L137.529 0.608H132.093L125.325 14H129.591L130.797 11.552H138.915L140.175 14ZM149.624 3.65H155.978C157.202 3.65 157.67 4.244 157.67 4.946V4.964C157.67 5.702 157.184 6.278 155.978 6.278H149.624V3.65ZM149.624 9.248H155.096C157.166 9.248 157.886 9.968 157.886 11.606V13.154C157.886 13.64 157.958 13.838 158.084 14H162.35V13.91C162.224 13.694 162.098 13.352 162.098 12.272V10.31C162.098 8.582 160.928 7.628 159.56 7.232C160.442 6.944 162.044 6.224 162.044 4.298V4.082C162.044 2.156 160.694 0.608 156.23 0.608H145.43V14H149.624V9.248ZM168.809 14H173.039V3.776H178.817V0.608H163.049V3.776H168.809V14Z" fill="#060507"/>
</svg>
