<svg width="61" height="13" viewBox="0 0 61 13" fill="none" xmlns="http://www.w3.org/2000/svg">
<path d="M6.36 10.232V11H0.468V10.388L3.96 6.968C4.4 6.536 4.696 6.164 4.848 5.852C5.008 5.532 5.088 5.212 5.088 4.892C5.088 4.396 4.916 4.012 4.572 3.74C4.236 3.46 3.752 3.32 3.12 3.32C2.136 3.32 1.372 3.632 0.828 4.256L0.216 3.728C0.544 3.344 0.96 3.048 1.464 2.84C1.976 2.632 2.552 2.528 3.192 2.528C4.048 2.528 4.724 2.732 5.22 3.14C5.724 3.54 5.976 4.092 5.976 4.796C5.976 5.228 5.88 5.644 5.688 6.044C5.496 6.444 5.132 6.904 4.596 7.424L1.74 10.232H6.36ZM13.9254 2.6V3.212L10.4094 11H9.47344L12.9294 3.368H8.60944V4.94H7.75744V2.6H13.9254ZM21.3998 10.232V11H15.5078V10.388L18.9998 6.968C19.4398 6.536 19.7358 6.164 19.8878 5.852C20.0478 5.532 20.1278 5.212 20.1278 4.892C20.1278 4.396 19.9558 4.012 19.6118 3.74C19.2758 3.46 18.7918 3.32 18.1598 3.32C17.1758 3.32 16.4118 3.632 15.8678 4.256L15.2558 3.728C15.5838 3.344 15.9998 3.048 16.5038 2.84C17.0158 2.632 17.5918 2.528 18.2318 2.528C19.0878 2.528 19.7638 2.732 20.2598 3.14C20.7638 3.54 21.0158 4.092 21.0158 4.796C21.0158 5.228 20.9198 5.644 20.7278 6.044C20.5358 6.444 20.1718 6.904 19.6358 7.424L16.7798 10.232H21.3998ZM30.1728 7.052L28.4568 8.792V11H27.5688V2.6H28.4568V7.676L33.3888 2.6H34.4088L30.7728 6.404L34.6608 11H33.6048L30.1728 7.052ZM45.424 2.6V11H44.572V4.28L41.272 9.932H40.852L37.552 4.316V11H36.7V2.6H37.432L41.08 8.828L44.692 2.6H45.424ZM51.053 0.895999H51.833L47.873 12.2H47.093L51.053 0.895999ZM60.4005 2.6V11H59.5245V7.124H54.2685V11H53.3805V2.6H54.2685V6.344H59.5245V2.6H60.4005Z" fill="white"/>
</svg>
