<svg width="176" height="10" viewBox="0 0 176 10" fill="none" xmlns="http://www.w3.org/2000/svg">
<path d="M4.104 3.972C4.656 3.972 5.144 4.076 5.568 4.284C6 4.492 6.336 4.788 6.576 5.172C6.816 5.548 6.936 5.988 6.936 6.492C6.936 7.004 6.812 7.456 6.564 7.848C6.316 8.24 5.972 8.544 5.532 8.76C5.1 8.968 4.612 9.072 4.068 9.072C2.956 9.072 2.104 8.708 1.512 7.98C0.92 7.244 0.624 6.208 0.624 4.872C0.624 3.936 0.784 3.144 1.104 2.496C1.424 1.848 1.872 1.36 2.448 1.032C3.024 0.696 3.696 0.528 4.464 0.528C5.296 0.528 5.96 0.68 6.456 0.983999L6.108 1.68C5.708 1.416 5.164 1.284 4.476 1.284C3.548 1.284 2.82 1.58 2.292 2.172C1.764 2.756 1.5 3.608 1.5 4.728C1.5 4.928 1.512 5.156 1.536 5.412C1.744 4.956 2.076 4.604 2.532 4.356C2.988 4.1 3.512 3.972 4.104 3.972ZM4.032 8.34C4.64 8.34 5.132 8.176 5.508 7.848C5.892 7.512 6.084 7.068 6.084 6.516C6.084 5.964 5.892 5.524 5.508 5.196C5.132 4.868 4.62 4.704 3.972 4.704C3.548 4.704 3.172 4.784 2.844 4.944C2.524 5.104 2.272 5.324 2.088 5.604C1.904 5.884 1.812 6.196 1.812 6.54C1.812 6.86 1.896 7.156 2.064 7.428C2.24 7.7 2.496 7.92 2.832 8.088C3.168 8.256 3.568 8.34 4.032 8.34ZM8.69109 5.376H11.8351V6.12H8.69109V5.376ZM16.6262 9.072C16.0022 9.072 15.4022 8.972 14.8262 8.772C14.2582 8.572 13.8182 8.308 13.5062 7.98L13.8542 7.296C14.1582 7.6 14.5622 7.848 15.0662 8.04C15.5702 8.224 16.0902 8.316 16.6262 8.316C17.3782 8.316 17.9422 8.18 18.3182 7.908C18.6942 7.628 18.8822 7.268 18.8822 6.828C18.8822 6.492 18.7782 6.224 18.5702 6.024C18.3702 5.824 18.1222 5.672 17.8262 5.568C17.5302 5.456 17.1182 5.336 16.5902 5.208C15.9582 5.048 15.4542 4.896 15.0782 4.752C14.7022 4.6 14.3782 4.372 14.1062 4.068C13.8422 3.764 13.7102 3.352 13.7102 2.832C13.7102 2.408 13.8222 2.024 14.0462 1.68C14.2702 1.328 14.6142 1.048 15.0782 0.84C15.5422 0.632 16.1182 0.528 16.8062 0.528C17.2862 0.528 17.7542 0.596 18.2102 0.732C18.6742 0.86 19.0742 1.04 19.4102 1.272L19.1102 1.98C18.7582 1.748 18.3822 1.576 17.9822 1.464C17.5822 1.344 17.1902 1.284 16.8062 1.284C16.0702 1.284 15.5142 1.428 15.1382 1.716C14.7702 1.996 14.5862 2.36 14.5862 2.808C14.5862 3.144 14.6862 3.416 14.8862 3.624C15.0942 3.824 15.3502 3.98 15.6542 4.092C15.9662 4.196 16.3822 4.312 16.9022 4.44C17.5182 4.592 18.0142 4.744 18.3902 4.896C18.7742 5.04 19.0982 5.264 19.3622 5.568C19.6262 5.864 19.7582 6.268 19.7582 6.78C19.7582 7.204 19.6422 7.592 19.4102 7.944C19.1862 8.288 18.8382 8.564 18.3662 8.772C17.8942 8.972 17.3142 9.072 16.6262 9.072ZM25.437 0.599999C26.509 0.599999 27.349 0.855999 27.957 1.368C28.565 1.88 28.869 2.584 28.869 3.48C28.869 4.376 28.565 5.08 27.957 5.592C27.349 6.096 26.509 6.348 25.437 6.348H23.181V9H22.293V0.599999H25.437ZM25.413 5.568C26.245 5.568 26.881 5.388 27.321 5.028C27.761 4.66 27.981 4.144 27.981 3.48C27.981 2.8 27.761 2.28 27.321 1.92C26.881 1.552 26.245 1.368 25.413 1.368H23.181V5.568H25.413ZM37.3291 8.232V9H31.3891V0.599999H37.1491V1.368H32.2771V4.356H36.6211V5.112H32.2771V8.232H37.3291ZM45.9564 8.232V9H40.0164V0.599999H45.7764V1.368H40.9044V4.356H45.2484V5.112H40.9044V8.232H45.9564ZM48.6438 0.599999H52.0638C52.9518 0.599999 53.7358 0.779999 54.4158 1.14C55.0958 1.492 55.6238 1.988 55.9998 2.628C56.3758 3.26 56.5638 3.984 56.5638 4.8C56.5638 5.616 56.3758 6.344 55.9998 6.984C55.6238 7.616 55.0958 8.112 54.4158 8.472C53.7358 8.824 52.9518 9 52.0638 9H48.6438V0.599999ZM52.0158 8.232C52.7518 8.232 53.3958 8.088 53.9478 7.8C54.4998 7.504 54.9278 7.1 55.2318 6.588C55.5358 6.068 55.6878 5.472 55.6878 4.8C55.6878 4.128 55.5358 3.536 55.2318 3.024C54.9278 2.504 54.4998 2.1 53.9478 1.812C53.3958 1.516 52.7518 1.368 52.0158 1.368H49.5318V8.232H52.0158ZM66.5465 9.072C65.7145 9.072 64.9625 8.888 64.2905 8.52C63.6265 8.152 63.1025 7.644 62.7185 6.996C62.3425 6.34 62.1545 5.608 62.1545 4.8C62.1545 3.992 62.3425 3.264 62.7185 2.616C63.1025 1.96 63.6305 1.448 64.3025 1.08C64.9745 0.712 65.7265 0.528 66.5585 0.528C67.1825 0.528 67.7585 0.632 68.2865 0.84C68.8145 1.048 69.2625 1.352 69.6305 1.752L69.0665 2.316C68.4105 1.652 67.5825 1.32 66.5825 1.32C65.9185 1.32 65.3145 1.472 64.7705 1.776C64.2265 2.08 63.7985 2.496 63.4865 3.024C63.1825 3.552 63.0305 4.144 63.0305 4.8C63.0305 5.456 63.1825 6.048 63.4865 6.576C63.7985 7.104 64.2265 7.52 64.7705 7.824C65.3145 8.128 65.9185 8.28 66.5825 8.28C67.5905 8.28 68.4185 7.944 69.0665 7.272L69.6305 7.836C69.2625 8.236 68.8105 8.544 68.2745 8.76C67.7465 8.968 67.1705 9.072 66.5465 9.072ZM75.6197 9.072C74.7877 9.072 74.0317 8.888 73.3517 8.52C72.6797 8.144 72.1517 7.632 71.7677 6.984C71.3917 6.336 71.2037 5.608 71.2037 4.8C71.2037 3.992 71.3917 3.264 71.7677 2.616C72.1517 1.968 72.6797 1.46 73.3517 1.092C74.0317 0.716 74.7877 0.528 75.6197 0.528C76.4517 0.528 77.1997 0.712 77.8637 1.08C78.5357 1.448 79.0637 1.96 79.4477 2.616C79.8317 3.264 80.0237 3.992 80.0237 4.8C80.0237 5.608 79.8317 6.34 79.4477 6.996C79.0637 7.644 78.5357 8.152 77.8637 8.52C77.1997 8.888 76.4517 9.072 75.6197 9.072ZM75.6197 8.28C76.2837 8.28 76.8837 8.132 77.4197 7.836C77.9557 7.532 78.3757 7.116 78.6797 6.588C78.9837 6.052 79.1357 5.456 79.1357 4.8C79.1357 4.144 78.9837 3.552 78.6797 3.024C78.3757 2.488 77.9557 2.072 77.4197 1.776C76.8837 1.472 76.2837 1.32 75.6197 1.32C74.9557 1.32 74.3517 1.472 73.8077 1.776C73.2717 2.072 72.8477 2.488 72.5357 3.024C72.2317 3.552 72.0797 4.144 72.0797 4.8C72.0797 5.456 72.2317 6.052 72.5357 6.588C72.8477 7.116 73.2717 7.532 73.8077 7.836C74.3517 8.132 74.9557 8.28 75.6197 8.28ZM89.6341 0.599999V9H88.9021L83.5021 2.184V9H82.6141V0.599999H83.3461L88.7581 7.416V0.599999H89.6341ZM95.2918 9.072C94.6678 9.072 94.0678 8.972 93.4918 8.772C92.9238 8.572 92.4838 8.308 92.1718 7.98L92.5198 7.296C92.8238 7.6 93.2278 7.848 93.7318 8.04C94.2358 8.224 94.7558 8.316 95.2918 8.316C96.0438 8.316 96.6078 8.18 96.9838 7.908C97.3598 7.628 97.5478 7.268 97.5478 6.828C97.5478 6.492 97.4438 6.224 97.2358 6.024C97.0358 5.824 96.7878 5.672 96.4918 5.568C96.1958 5.456 95.7838 5.336 95.2558 5.208C94.6238 5.048 94.1198 4.896 93.7438 4.752C93.3678 4.6 93.0438 4.372 92.7718 4.068C92.5078 3.764 92.3758 3.352 92.3758 2.832C92.3758 2.408 92.4878 2.024 92.7118 1.68C92.9358 1.328 93.2798 1.048 93.7438 0.84C94.2078 0.632 94.7838 0.528 95.4718 0.528C95.9518 0.528 96.4198 0.596 96.8758 0.732C97.3398 0.86 97.7398 1.04 98.0758 1.272L97.7758 1.98C97.4238 1.748 97.0478 1.576 96.6478 1.464C96.2478 1.344 95.8558 1.284 95.4718 1.284C94.7358 1.284 94.1798 1.428 93.8038 1.716C93.4358 1.996 93.2518 2.36 93.2518 2.808C93.2518 3.144 93.3518 3.416 93.5518 3.624C93.7598 3.824 94.0158 3.98 94.3198 4.092C94.6318 4.196 95.0478 4.312 95.5678 4.44C96.1838 4.592 96.6798 4.744 97.0558 4.896C97.4398 5.04 97.7638 5.264 98.0278 5.568C98.2918 5.864 98.4238 6.268 98.4238 6.78C98.4238 7.204 98.3078 7.592 98.0758 7.944C97.8518 8.288 97.5038 8.564 97.0318 8.772C96.5598 8.972 95.9798 9.072 95.2918 9.072ZM102.473 1.368H99.5214V0.599999H106.313V1.368H103.361V9H102.473V1.368ZM113.178 6.756H108.498L107.49 9H106.566L110.406 0.599999H111.282L115.122 9H114.186L113.178 6.756ZM112.854 6.036L110.838 1.524L108.822 6.036H112.854ZM124.132 0.599999V9H123.4L118 2.184V9H117.112V0.599999H117.844L123.256 7.416V0.599999H124.132ZM129.105 1.368H126.153V0.599999H132.945V1.368H129.993V9H129.105V1.368ZM133.929 5.376H137.073V6.12H133.929V5.376ZM148.483 0.599999V9H147.631V2.28L144.331 7.932H143.911L140.611 2.316V9H139.759V0.599999H140.491L144.139 6.828L147.751 0.599999H148.483ZM157.76 8.232V9H151.82V0.599999H157.58V1.368H152.708V4.356H157.052V5.112H152.708V8.232H157.76ZM162.764 9.072C162.14 9.072 161.54 8.972 160.964 8.772C160.396 8.572 159.956 8.308 159.644 7.98L159.992 7.296C160.296 7.6 160.7 7.848 161.204 8.04C161.708 8.224 162.228 8.316 162.764 8.316C163.516 8.316 164.08 8.18 164.456 7.908C164.832 7.628 165.02 7.268 165.02 6.828C165.02 6.492 164.916 6.224 164.708 6.024C164.508 5.824 164.26 5.672 163.964 5.568C163.668 5.456 163.256 5.336 162.728 5.208C162.096 5.048 161.592 4.896 161.216 4.752C160.84 4.6 160.516 4.372 160.244 4.068C159.98 3.764 159.848 3.352 159.848 2.832C159.848 2.408 159.96 2.024 160.184 1.68C160.408 1.328 160.752 1.048 161.216 0.84C161.68 0.632 162.256 0.528 162.944 0.528C163.424 0.528 163.892 0.596 164.348 0.732C164.812 0.86 165.212 1.04 165.548 1.272L165.248 1.98C164.896 1.748 164.52 1.576 164.12 1.464C163.72 1.344 163.328 1.284 162.944 1.284C162.208 1.284 161.652 1.428 161.276 1.716C160.908 1.996 160.724 2.36 160.724 2.808C160.724 3.144 160.824 3.416 161.024 3.624C161.232 3.824 161.488 3.98 161.792 4.092C162.104 4.196 162.52 4.312 163.04 4.44C163.656 4.592 164.152 4.744 164.528 4.896C164.912 5.04 165.236 5.264 165.5 5.568C165.764 5.864 165.896 6.268 165.896 6.78C165.896 7.204 165.78 7.592 165.548 7.944C165.324 8.288 164.976 8.564 164.504 8.772C164.032 8.972 163.452 9.072 162.764 9.072ZM175.451 0.599999V9H174.575V5.124H169.319V9H168.431V0.599999H169.319V4.344H174.575V0.599999H175.451Z" fill="white"/>
</svg>
