<svg width="194" height="26" viewBox="0 0 194 26" fill="none" xmlns="http://www.w3.org/2000/svg">
<path d="M6.176 10.248L6.176 25L13.568 25L13.568 1.192L7.744 1.192C6.656 3.688 4.736 5.512 0.64 5.768L0.64 10.248H6.176ZM32.5873 25.48C44.5873 25.48 46.5713 20.808 46.5713 17.32V17.032C46.5713 13.288 44.2033 9.672 34.2193 9.672H33.8033C26.6353 9.672 24.6513 11.464 23.9153 11.976V11.848C23.9153 10.216 24.6513 6.28 31.5312 6.28C37.0993 6.28 37.7073 8.104 37.8673 8.36L45.5473 8.36V8.232C45.5473 5.064 42.9233 0.775999 32.1713 0.775999H30.8913C19.4033 0.775999 16.4593 7.272 16.4593 12.744V13.512C16.4593 18.984 18.9233 25.48 31.1793 25.48H32.5873ZM24.8753 17.224C24.8753 16.008 25.9313 14.664 31.8513 14.664C37.9633 14.664 38.7633 16.104 38.7633 17.288V17.416C38.7633 18.536 37.9633 20.072 31.8513 20.072C25.9633 20.072 24.8753 18.44 24.8753 17.32V17.224ZM69.3688 8.936C69.3688 10.088 68.3768 11.624 62.3928 11.624C56.3448 11.624 55.5128 10.12 55.5128 8.936V8.84C55.5128 7.72 56.3448 6.216 62.3928 6.216C68.2488 6.216 69.3688 7.72 69.3688 8.84V8.936ZM63.5448 25.48C75.1288 25.48 77.8168 19.112 77.8168 13.512V12.744C77.8168 6.504 74.8408 0.775999 62.9688 0.775999H61.5608C49.2408 0.775999 47.6728 5.416 47.6728 8.936V9.224C47.6728 13 50.4568 16.616 60.4408 16.616H60.8568C67.5128 16.616 69.6568 14.824 70.3288 14.312V14.408C70.3288 16.04 69.5608 19.976 62.7448 19.976C57.2408 19.976 56.5048 18.248 56.4088 17.896L48.6968 17.896V18.024C48.6968 21.096 51.7048 25.48 62.2648 25.48H63.5448ZM90.3865 25H97.5545V8.52L106.931 25H110.931L120.307 8.52V25L127.667 25V1.192L117.459 1.192L109.203 16.008L100.979 1.192L90.3865 1.192V25ZM149.18 17.064C157.692 17.064 160.284 13.512 160.284 9.256V8.936C160.284 4.584 157.756 1.192 149.18 1.192L131.324 1.192V25H138.78V17.064L149.18 17.064ZM138.78 6.6H149.052C151.452 6.6 152.508 7.496 152.508 9.128V9.224C152.508 10.856 151.388 11.72 149.052 11.72L138.78 11.72V6.6ZM162.762 25L170.218 25V15.624H186.218V25L193.674 25V1.192L186.218 1.192V9.864L170.218 9.864V1.192L162.762 1.192V25Z" fill="white"/>
</svg>
