<svg width="66" height="15" viewBox="0 0 66 15" fill="none" xmlns="http://www.w3.org/2000/svg">
<path d="M3.41541 5.702V14H7.57341V0.608H4.29741C3.68541 2.012 2.60541 3.038 0.301406 3.182V5.702H3.41541ZM28.0277 6.998C28.0277 4.622 26.9297 0.373999 18.9917 0.373999H18.1997C10.2797 0.373999 9.16373 4.622 9.16373 6.998V7.538C9.16373 9.896 10.2797 14.234 18.1997 14.234H18.9917C26.9477 14.234 28.0277 9.878 28.0277 7.538V6.998ZM23.6357 7.376C23.6357 8.906 22.6817 10.958 18.5957 10.958C14.5097 10.958 13.5557 8.852 13.5557 7.34V7.124C13.5557 5.612 14.4197 3.632 18.5957 3.632C22.6997 3.632 23.6357 5.612 23.6357 7.124V7.376ZM56.9294 12.776L65.3174 9.986V7.124L56.9294 4.298V7.034L62.6174 8.564L56.9294 10.058V12.776Z" fill="white"/>
</svg>
