<svg width="508" height="155" viewBox="0 0 508 155" fill="none" xmlns="http://www.w3.org/2000/svg">
<path d="M-134.79 10.2314L-134.643 9.10259H-135.782H-159.953H-161.12L-160.941 10.2556C-160.268 14.6073 -159.759 19.9814 -159.249 27.2405C-159.093 30.6602 -158.936 34.3661 -158.78 38.3585H-214.084C-219.834 38.3585 -227.958 37.8533 -232.842 37.184L-233.978 37.0284V38.1747V60.6663V61.7247L-232.922 61.6647C-226.968 61.3267 -219.671 60.9899 -213.573 60.9899H-169.058C-182.951 79.8178 -210.264 102.691 -242.424 117.765L-243.639 118.334L-242.747 119.336L-227.086 136.923L-226.565 137.508L-225.873 137.142C-199.867 123.407 -173.236 101.027 -157.837 81.9172C-157.549 98.3247 -157.549 114.036 -157.549 124.759C-157.549 127.135 -157.969 128.622 -158.704 129.513C-159.4 130.358 -160.543 130.861 -162.507 130.861C-168.239 130.861 -177.373 130.189 -184.972 128.847L-186.253 128.621L-186.142 129.917L-184.27 151.901L-184.197 152.754L-183.343 152.814C-173.617 153.492 -164.061 153.831 -153.655 153.831C-147.041 153.831 -141.95 152.232 -138.53 149.085C-135.094 145.923 -133.502 141.345 -133.59 135.735C-133.831 119.623 -134.24 100.814 -134.64 82.4635C-134.799 75.1669 -134.957 67.943 -135.101 60.9899H-114.164C-111.093 60.9899 -107.193 61.1413 -103.303 61.2925C-101.394 61.3666 -99.4881 61.4407 -97.6831 61.4967L-96.6521 61.5287V60.4972V38.0056V36.8264L-97.8155 37.0191C-101.843 37.6859 -109.788 38.3585 -115.355 38.3585H-135.636C-135.646 36.5061 -135.682 34.7169 -135.718 32.9959L-135.723 32.7462C-135.764 30.805 -135.803 28.9544 -135.803 27.1826C-135.803 21.9733 -135.464 15.4222 -134.79 10.2314ZM-66.2488 66.265L-67.3313 66.1753V67.2616V93.8117V94.8955L-66.251 94.8085C-59.9909 94.3042 -48.616 93.9662 -38.9256 93.9662H52.4833C57.5324 93.9662 63.3211 94.304 67.7424 94.562C69.5612 94.6682 71.1487 94.7608 72.3579 94.8109L73.3993 94.854V93.8117V67.2616V66.1822L72.3231 66.2645C71.7971 66.3047 71.2291 66.3495 70.623 66.3974C66.1113 66.7537 59.4948 67.2762 52.4833 67.2762H-38.9256C-47.7539 67.2762 -60.1523 66.7697 -66.2488 66.265ZM138.988 152.851L138.815 154H139.977H166.532H167.635L167.527 152.902C166.847 145.973 166 134.177 166 129.325V82.8653C184.252 89.1299 208.937 98.6702 225.988 107.551L226.955 108.055L227.373 107.048L237.076 83.7108L237.438 82.8398L236.589 82.4275C221.027 74.8652 188.807 63.0116 166 56.364V32.0868C166 25.2201 166.843 17.836 167.525 11.908L167.653 10.7937H166.532H139.977H138.756L138.997 11.9911C140.17 17.8187 140.679 26.2007 140.679 32.0868V129.325C140.679 136.045 140.001 146.142 138.988 152.851ZM392.051 10.0475L391.593 9.37415L390.841 9.6863L377.393 15.2669L376.232 15.7491L376.963 16.7723C381.151 22.6278 385.785 31.6377 389.297 38.4683C389.595 39.0473 389.885 39.6106 390.165 40.155L390.594 40.987L391.453 40.6138L405.07 34.695L406.051 34.2687L405.56 33.3187C402.319 27.048 396.34 16.3533 392.051 10.0475ZM412.134 2.4328L411.675 1.76608L410.927 2.07637L397.48 7.65698L396.302 8.14547L397.057 9.17259C401.604 15.3636 407.192 25.2834 410.583 32.1893L410.999 33.0373L411.87 32.6698L425.487 26.9201L426.484 26.4995L425.986 25.5392C422.905 19.5859 416.585 8.89586 412.134 2.4328ZM290.207 92.5912L290.202 92.6037C284.448 107.4 274.451 125.58 263.788 139.367L262.991 140.398L264.193 140.901L288.024 150.878L288.762 151.187L289.225 150.536C298.303 137.773 308.385 118.416 314.54 101.941C320.521 86.1511 326.661 62.7627 329.052 50.8862L329.054 50.8775L329.056 50.8689C329.732 47.1746 331.596 38.9301 333.112 34.0761L333.442 33.0195L332.357 32.7981L307.505 27.7248L306.415 27.5023L306.31 28.6099C304.278 49.9752 297.837 73.7251 290.207 92.5912ZM374.284 89.7572L374.286 89.7642C381.077 107.979 387.194 129.245 391.953 149.341L392.203 150.394L393.233 150.062L418.426 141.945L419.346 141.649L419.081 140.719C414.307 123.95 405.275 96.8624 399.305 81.6096L399.304 81.6072C392.826 65.1786 381.064 39.0985 374.062 26.0338L373.668 25.2992L372.875 25.5541L350.236 32.8258L349.075 33.1986L349.667 34.264C356.784 47.0579 367.828 72.035 374.284 89.7572ZM438.979 78.8067L437.774 79.1143L438.334 80.2252L449.057 101.533L449.431 102.276L450.23 102.044C470.661 96.103 491.725 87.2783 509.039 78.3752V130.847C509.039 138.282 508.527 148.864 507.861 152.835L507.666 154H508.847H535.742H537.063L536.705 152.729C536.143 150.734 535.762 147.158 535.528 143.071C535.295 139.016 535.21 134.555 535.21 130.847V63.0661C551.621 52.2645 567.833 39.1581 580.7 26.5438L581.441 25.8175L580.688 25.1039L562.304 7.68559L561.528 6.9503L560.846 7.77365C549.857 21.0427 530.538 37.8818 513.092 48.6517C494.288 60.0959 469.359 71.0507 438.979 78.8067Z" stroke="url(#paint0_linear)" stroke-width="2"/>
<defs>
<linearGradient id="paint0_linear" x1="580" y1="153" x2="320.497" y2="-311.352" gradientUnits="userSpaceOnUse">
<stop stop-color="#9A6A44"/>
<stop offset="0.28125" stop-color="#FFF4BC"/>
<stop offset="0.53125" stop-color="#AB6516"/>
<stop offset="0.760417" stop-color="#9C3E09"/>
<stop offset="1" stop-color="#E7D4A6"/>
</linearGradient>
</defs>
</svg>
