<svg width="357" height="15" viewBox="0 0 357 15" fill="none" xmlns="http://www.w3.org/2000/svg">
<path d="M0.0260001 14H4.058V4.73L9.332 14H11.582L16.856 4.73V14H20.996V0.608H15.254L10.61 8.942L5.984 0.608H0.0260001V14ZM31.9453 0.373999C23.4673 0.373999 22.5133 4.604 22.5133 6.998V7.538C22.5133 9.896 23.4673 14.234 31.9453 14.234H32.7193C41.1613 14.234 42.1333 9.896 42.1333 7.538V6.998C42.1333 4.604 41.1433 0.373999 32.7193 0.373999H31.9453ZM37.7413 7.376C37.7413 8.924 36.8233 10.976 32.3233 10.976C27.7873 10.976 26.9053 8.87 26.9053 7.34V7.124C26.9053 5.594 27.7153 3.614 32.3233 3.614C36.8593 3.614 37.7413 5.594 37.7413 7.124V7.376ZM43.6373 0.608V14H47.7773V5.126L56.8673 14H61.0073V0.608H56.8673V9.032L48.3173 0.608H43.6373ZM68.2992 14H72.5292V3.776H78.3072V0.608H62.5392V3.776H68.2992V14ZM79.8307 14H91.4047C95.7427 14 96.9487 12.254 96.9487 10.148V9.896C96.9487 7.538 94.9867 6.764 94.0687 6.53C94.7167 6.332 96.1927 5.666 96.1927 3.92V3.668C96.1927 2.084 95.1307 0.608 91.2967 0.608H79.8307V14ZM90.5767 3.434C91.7467 3.434 92.0347 3.938 92.0347 4.496V4.532C92.0347 5.072 91.7467 5.612 90.5767 5.612H84.0247V3.434H90.5767ZM90.9367 8.456C92.3227 8.456 92.5927 9.122 92.5927 9.698V9.77C92.5927 10.31 92.3227 11.084 90.9367 11.084H84.0247V8.456H90.9367ZM98.2877 0.608V14H111.788V10.67H102.482V0.608H98.2877ZM124.326 8.528H119.25L121.734 3.506L124.326 8.528ZM127.134 14H131.652L124.488 0.608H119.052L112.284 14H116.55L117.756 11.552H125.874L127.134 14ZM132.389 0.608V14H136.529V5.126L145.619 14H149.759V0.608H145.619V9.032L137.069 0.608H132.389ZM156.007 14V7.682L163.081 14H168.553L160.489 6.728L168.193 0.608H162.865L156.007 6.188V0.608H151.813V14H156.007ZM174.77 14H178.802V4.73L184.076 14H186.326L191.6 4.73V14H195.74V0.608H189.998L185.354 8.942L180.728 0.608H174.77V14ZM206.689 0.373999C198.211 0.373999 197.257 4.604 197.257 6.998V7.538C197.257 9.896 198.211 14.234 206.689 14.234H207.463C215.905 14.234 216.877 9.896 216.877 7.538V6.998C216.877 4.604 215.887 0.373999 207.463 0.373999H206.689ZM212.485 7.376C212.485 8.924 211.567 10.976 207.067 10.976C202.531 10.976 201.649 8.87 201.649 7.34V7.124C201.649 5.594 202.459 3.614 207.067 3.614C211.603 3.614 212.485 5.594 212.485 7.124V7.376ZM223.075 14H227.305V3.776H233.083V0.608H217.315V3.776H223.075V14ZM242.953 0.373999C234.475 0.373999 233.521 4.604 233.521 6.998V7.538C233.521 9.896 234.475 14.234 242.953 14.234H243.727C252.169 14.234 253.141 9.896 253.141 7.538V6.998C253.141 4.604 252.151 0.373999 243.727 0.373999H242.953ZM248.749 7.376C248.749 8.924 247.831 10.976 243.331 10.976C238.795 10.976 237.913 8.87 237.913 7.34V7.124C237.913 5.594 238.723 3.614 243.331 3.614C247.867 3.614 248.749 5.594 248.749 7.124V7.376ZM258.839 3.65H265.193C266.417 3.65 266.885 4.244 266.885 4.946V4.964C266.885 5.702 266.399 6.278 265.193 6.278H258.839V3.65ZM258.839 9.248H264.311C266.381 9.248 267.101 9.968 267.101 11.606V13.154C267.101 13.64 267.173 13.838 267.299 14H271.565V13.91C271.439 13.694 271.313 13.352 271.313 12.272V10.31C271.313 8.582 270.143 7.628 268.775 7.232C269.657 6.944 271.259 6.224 271.259 4.298V4.082C271.259 2.156 269.909 0.608 265.445 0.608H254.645V14H258.839V9.248ZM282.124 14.234C289.774 14.234 291.106 10.49 291.106 8.798V8.6H286.66C286.552 8.906 286.12 10.976 281.782 10.976C277.876 10.976 276.814 8.888 276.814 7.304V7.088C276.814 5.414 277.732 3.614 281.746 3.614C285.994 3.614 286.534 5.486 286.642 5.846H291.088V5.648C291.088 4.082 289.882 0.373999 282.124 0.373999H281.386C273.466 0.373999 272.422 4.568 272.422 6.998V7.52C272.422 9.896 273.628 14.234 281.386 14.234H282.124ZM297.125 14H301.319V8.816L308.285 0.608H303.551L299.321 5.54L295.163 0.608H289.961L297.125 8.816V14ZM316.717 14.234C324.367 14.234 325.699 10.49 325.699 8.798V8.6H321.253C321.145 8.906 320.713 10.976 316.375 10.976C312.469 10.976 311.407 8.888 311.407 7.304V7.088C311.407 5.414 312.325 3.614 316.339 3.614C320.587 3.614 321.127 5.486 321.235 5.846H325.681V5.648C325.681 4.082 324.475 0.373999 316.717 0.373999H315.979C308.059 0.373999 307.015 4.568 307.015 6.998V7.52C307.015 9.896 308.221 14.234 315.979 14.234H316.717ZM327.155 0.608V14H340.655V10.67H331.349V0.608H327.155ZM342.202 0.608V14H356.494V10.886H346.342V8.69H356.08V5.63H346.342V3.65H356.314V0.608H342.202Z" fill="white"/>
</svg>
