<svg width="54" height="15" viewBox="0 0 54 15" fill="none" xmlns="http://www.w3.org/2000/svg">
<path d="M9.072 12.776V10.058L3.384 8.564L9.072 7.034V4.298L0.684 7.124V9.986L9.072 12.776ZM46.5481 14.234C52.6681 14.234 53.9641 11.66 53.9641 9.482V9.374C53.9641 6.926 52.7581 4.874 47.4481 4.874H47.2861C44.0101 4.874 42.7681 5.918 42.5161 6.116V3.722H53.0281V0.608H38.3941V8.834H42.4801C42.5161 8.708 42.8941 7.754 46.1161 7.754C49.1941 7.754 49.5721 8.654 49.5721 9.392V9.5C49.5721 10.238 49.1941 11.138 46.1161 11.138C42.8761 11.138 42.5881 10.004 42.5341 9.806H38.1061V9.932C38.1061 11.246 38.9701 14.234 45.7021 14.234H46.5481Z" fill="white"/>
</svg>
