<svg width="14" height="71" viewBox="0 0 14 71" fill="none" xmlns="http://www.w3.org/2000/svg">
<path d="M0.399997 65.4429L0.399997 70.1589L13 70.1589L13 68.8269L9.022 68.8269L9.022 65.4429C9.022 62.2389 7.402 60.2949 4.72 60.2949C2.02 60.2949 0.399997 62.2389 0.399997 65.4429ZM7.852 65.4789L7.852 68.8269L1.552 68.8269L1.552 65.4789C1.552 62.9589 2.704 61.6269 4.72 61.6269C6.7 61.6269 7.852 62.9589 7.852 65.4789ZM13.108 51.731C13.108 47.951 10.39 45.125 6.7 45.125C3.01 45.125 0.291997 47.951 0.291997 51.731C0.291997 55.547 3.028 58.355 6.7 58.355C10.372 58.355 13.108 55.547 13.108 51.731ZM11.92 51.731C11.92 54.773 9.706 57.041 6.7 57.041C3.694 57.041 1.48 54.773 1.48 51.731C1.48 48.707 3.694 46.457 6.7 46.457C9.706 46.457 11.92 48.707 11.92 51.731ZM0.399995 26.5061L11.29 30.1961L0.399996 33.9041L0.399996 35.1461L11.236 38.9081L0.399996 42.5441L0.399996 43.9121L13 39.6641L13 38.2781L2.254 34.5701L13 30.8801L13 29.4761L0.399995 25.2281L0.399995 26.5061ZM11.848 21.4539L7.168 21.4539L7.168 14.9379L6.034 14.9379L6.034 21.4539L1.552 21.4539L1.552 14.1459L0.399995 14.1459L0.399995 22.7859L13 22.7859L13 13.8759L11.848 13.8759L11.848 21.4539ZM13 0.682874L8.68 3.76087C8.086 1.92487 6.69999 0.880874 4.72 0.880874C2.01999 0.880874 0.399994 2.82487 0.399995 6.02887L0.399995 10.7449L13 10.7449L13 9.41287L9.004 9.41287L9.004 6.02887C9.004 5.66887 8.986 5.34487 8.95 5.02087L13 2.14087L13 0.682874ZM7.86999 6.06487L7.87 9.41287L1.55199 9.41287L1.55199 6.06487C1.55199 3.54488 2.70399 2.21287 4.72 2.21287C6.69999 2.21287 7.86999 3.54487 7.86999 6.06487Z" fill="#3F3E44"/>
</svg>
