<svg width="109" height="26" viewBox="0 0 109 26" fill="none" xmlns="http://www.w3.org/2000/svg">
<path d="M6.176 10.248L6.176 25L13.568 25L13.568 1.192L7.744 1.192C6.656 3.688 4.736 5.512 0.64 5.768L0.64 10.248H6.176ZM32.5873 25.48C44.5873 25.48 46.5713 20.808 46.5713 17.32V17.032C46.5713 13.288 44.2033 9.672 34.2193 9.672H33.8033C26.6353 9.672 24.6513 11.464 23.9153 11.976V11.848C23.9153 10.216 24.6513 6.28 31.5312 6.28C37.0993 6.28 37.7073 8.104 37.8673 8.36L45.5473 8.36V8.232C45.5473 5.064 42.9233 0.775999 32.1713 0.775999H30.8913C19.4033 0.775999 16.4593 7.272 16.4593 12.744V13.512C16.4593 18.984 18.9233 25.48 31.1793 25.48H32.5873ZM24.8753 17.224C24.8753 16.008 25.9313 14.664 31.8513 14.664C37.9633 14.664 38.7633 16.104 38.7633 17.288V17.416C38.7633 18.536 37.9633 20.072 31.8513 20.072C25.9633 20.072 24.8753 18.44 24.8753 17.32V17.224ZM77.109 25V16.296H69.781V19.368L54.709 19.368C54.709 18.696 55.349 17.416 60.981 16.392L67.509 15.304C75.317 14.024 76.693 11.752 76.693 8.168V8.104C76.693 4.328 74.421 0.775999 63.221 0.775999H61.941C49.621 0.775999 48.469 6.632 48.469 9.352V9.608L56.245 9.608C56.341 8.424 56.853 6.248 62.837 6.248C68.085 6.248 68.821 7.112 68.821 8.04C68.821 8.776 68.533 9.416 65.301 10.024L59.733 11.176C48.693 13.48 48.053 18.792 48.053 22.312V25L77.109 25ZM89.8553 25H97.3113V15.624L113.311 15.624V25H120.767V1.192L113.311 1.192V9.864L97.3113 9.864V1.192L89.8553 1.192V25ZM142.274 17.064C150.786 17.064 153.378 13.512 153.378 9.256V8.936C153.378 4.584 150.85 1.192 142.274 1.192L124.418 1.192V25H131.874V17.064H142.274ZM131.874 6.6L142.146 6.6C144.546 6.6 145.602 7.496 145.602 9.128V9.224C145.602 10.856 144.482 11.72 142.146 11.72H131.874V6.6Z" fill="white"/>
</svg>
