<svg width="67" height="10" viewBox="0 0 67 10" fill="none" xmlns="http://www.w3.org/2000/svg">
<path d="M3.24 0.528C4.352 0.528 5.204 0.896 5.796 1.632C6.388 2.36 6.684 3.392 6.684 4.728C6.684 5.664 6.524 6.456 6.204 7.104C5.884 7.752 5.436 8.244 4.86 8.58C4.284 8.908 3.612 9.072 2.844 9.072C2.012 9.072 1.348 8.92 0.852 8.616L1.2 7.92C1.6 8.184 2.144 8.316 2.832 8.316C3.76 8.316 4.488 8.024 5.016 7.44C5.544 6.848 5.808 5.992 5.808 4.872C5.808 4.664 5.796 4.436 5.772 4.188C5.564 4.644 5.232 5 4.776 5.256C4.32 5.504 3.796 5.628 3.204 5.628C2.652 5.628 2.16 5.524 1.728 5.316C1.304 5.108 0.972 4.816 0.732 4.44C0.492 4.056 0.372 3.612 0.372 3.108C0.372 2.596 0.496 2.144 0.744 1.752C0.992 1.36 1.332 1.06 1.764 0.852C2.204 0.636 2.696 0.528 3.24 0.528ZM3.336 4.896C3.76 4.896 4.132 4.816 4.452 4.656C4.78 4.496 5.036 4.276 5.22 3.996C5.404 3.716 5.496 3.404 5.496 3.06C5.496 2.74 5.408 2.444 5.232 2.172C5.064 1.9 4.812 1.68 4.476 1.512C4.14 1.344 3.74 1.26 3.276 1.26C2.668 1.26 2.172 1.428 1.788 1.764C1.412 2.092 1.224 2.532 1.224 3.084C1.224 3.636 1.412 4.076 1.788 4.404C2.172 4.732 2.688 4.896 3.336 4.896ZM9.05559 9.06C8.87959 9.06 8.72759 8.996 8.59959 8.868C8.47959 8.74 8.41959 8.584 8.41959 8.4C8.41959 8.216 8.47959 8.064 8.59959 7.944C8.72759 7.816 8.87959 7.752 9.05559 7.752C9.23159 7.752 9.38359 7.816 9.51159 7.944C9.63959 8.064 9.70359 8.216 9.70359 8.4C9.70359 8.584 9.63959 8.74 9.51159 8.868C9.38359 8.996 9.23159 9.06 9.05559 9.06ZM17.4038 8.232V9H11.5117V8.388L15.0037 4.968C15.4438 4.536 15.7398 4.164 15.8917 3.852C16.0518 3.532 16.1318 3.212 16.1318 2.892C16.1318 2.396 15.9598 2.012 15.6157 1.74C15.2797 1.46 14.7958 1.32 14.1638 1.32C13.1797 1.32 12.4157 1.632 11.8717 2.256L11.2597 1.728C11.5877 1.344 12.0037 1.048 12.5077 0.84C13.0197 0.632 13.5957 0.528 14.2357 0.528C15.0918 0.528 15.7678 0.732 16.2638 1.14C16.7678 1.54 17.0198 2.092 17.0198 2.796C17.0198 3.228 16.9238 3.644 16.7318 4.044C16.5398 4.444 16.1758 4.904 15.6398 5.424L12.7837 8.232H17.4038ZM21.2961 4.044C22.5121 4.044 23.3961 4.264 23.9481 4.704C24.5081 5.136 24.7881 5.744 24.7881 6.528C24.7881 7.016 24.6721 7.452 24.4401 7.836C24.2161 8.22 23.8761 8.524 23.4201 8.748C22.9641 8.964 22.4041 9.072 21.7401 9.072C21.1401 9.072 20.5681 8.976 20.0241 8.784C19.4881 8.584 19.0561 8.32 18.7281 7.992L19.1481 7.308C19.4281 7.596 19.7961 7.832 20.2521 8.016C20.7081 8.192 21.2001 8.28 21.7281 8.28C22.4241 8.28 22.9601 8.124 23.3361 7.812C23.7201 7.5 23.9121 7.084 23.9121 6.564C23.9121 5.988 23.6961 5.552 23.2641 5.256C22.8401 4.96 22.1201 4.812 21.1041 4.812H19.3161L19.7481 0.599999H24.3441V1.368H20.5041L20.2161 4.044H21.2961ZM29.8329 9.072C29.1849 9.072 28.6049 8.9 28.0929 8.556C27.5889 8.212 27.1929 7.72 26.9049 7.08C26.6249 6.432 26.4849 5.672 26.4849 4.8C26.4849 3.928 26.6249 3.172 26.9049 2.532C27.1929 1.884 27.5889 1.388 28.0929 1.044C28.6049 0.7 29.1849 0.528 29.8329 0.528C30.4809 0.528 31.0569 0.7 31.5609 1.044C32.0729 1.388 32.4729 1.884 32.7609 2.532C33.0489 3.172 33.1929 3.928 33.1929 4.8C33.1929 5.672 33.0489 6.432 32.7609 7.08C32.4729 7.72 32.0729 8.212 31.5609 8.556C31.0569 8.9 30.4809 9.072 29.8329 9.072ZM29.8329 8.28C30.3209 8.28 30.7489 8.144 31.1169 7.872C31.4929 7.6 31.7849 7.204 31.9929 6.684C32.2009 6.164 32.3049 5.536 32.3049 4.8C32.3049 4.064 32.2009 3.436 31.9929 2.916C31.7849 2.396 31.4929 2 31.1169 1.728C30.7489 1.456 30.3209 1.32 29.8329 1.32C29.3449 1.32 28.9129 1.456 28.5369 1.728C28.1689 2 27.8809 2.396 27.6729 2.916C27.4649 3.436 27.3609 4.064 27.3609 4.8C27.3609 5.536 27.4649 6.164 27.6729 6.684C27.8809 7.204 28.1689 7.6 28.5369 7.872C28.9129 8.144 29.3449 8.28 29.8329 8.28ZM45.2509 9L43.3309 6.3C43.1149 6.324 42.8909 6.336 42.6589 6.336H40.4029V9H39.5149V0.599999H42.6589C43.7309 0.599999 44.5709 0.855999 45.1789 1.368C45.7869 1.88 46.0909 2.584 46.0909 3.48C46.0909 4.136 45.9229 4.692 45.5869 5.148C45.2589 5.596 44.7869 5.92 44.1709 6.12L46.2229 9H45.2509ZM42.6349 5.58C43.4669 5.58 44.1029 5.396 44.5429 5.028C44.9829 4.66 45.2029 4.144 45.2029 3.48C45.2029 2.8 44.9829 2.28 44.5429 1.92C44.1029 1.552 43.4669 1.368 42.6349 1.368H40.4029V5.58H42.6349ZM51.9308 0.599999C53.0028 0.599999 53.8428 0.855999 54.4508 1.368C55.0588 1.88 55.3628 2.584 55.3628 3.48C55.3628 4.376 55.0588 5.08 54.4508 5.592C53.8428 6.096 53.0028 6.348 51.9308 6.348H49.6748V9H48.7868V0.599999H51.9308ZM51.9068 5.568C52.7388 5.568 53.3748 5.388 53.8148 5.028C54.2548 4.66 54.4748 4.144 54.4748 3.48C54.4748 2.8 54.2548 2.28 53.8148 1.92C53.3748 1.552 52.7388 1.368 51.9068 1.368H49.6748V5.568H51.9068ZM66.6068 0.599999V9H65.7548V2.28L62.4548 7.932H62.0348L58.7348 2.316V9H57.8828V0.599999H58.6148L62.2628 6.828L65.8748 0.599999H66.6068Z" fill="white"/>
</svg>
