<svg width="43" height="9" viewBox="0 0 43 9" fill="none" xmlns="http://www.w3.org/2000/svg">
<path d="M2.952 0.599999V9H2.088V1.368H0.108V0.599999H2.952ZM11.2959 8.232V9H5.40394V8.388L8.89594 4.968C9.33594 4.536 9.63194 4.164 9.78394 3.852C9.94394 3.532 10.0239 3.212 10.0239 2.892C10.0239 2.396 9.85194 2.012 9.50794 1.74C9.17194 1.46 8.68794 1.32 8.05594 1.32C7.07194 1.32 6.30794 1.632 5.76394 2.256L5.15194 1.728C5.47994 1.344 5.89594 1.048 6.39994 0.84C6.91194 0.632 7.48794 0.528 8.12794 0.528C8.98394 0.528 9.65994 0.732 10.1559 1.14C10.6599 1.54 10.9119 2.092 10.9119 2.796C10.9119 3.228 10.8159 3.644 10.6239 4.044C10.4319 4.444 10.0679 4.904 9.53194 5.424L6.67594 8.232H11.2959ZM15.3082 0.599999V9H14.4442V1.368H12.4642V0.599999H15.3082ZM25.0048 5.052L23.2888 6.792V9H22.4008V0.599999H23.2888V5.676L28.2208 0.599999H29.2408L25.6048 4.404L29.4928 9H28.4368L25.0048 5.052ZM42.5836 0.599999L39.7516 9H38.8156L36.3556 1.836L33.8836 9H32.9596L30.1276 0.599999H31.0396L33.4636 7.824L35.9716 0.599999H36.7996L39.2716 7.86L41.7316 0.599999H42.5836Z" fill="white"/>
</svg>
