<svg width="16" height="14" viewBox="0 0 16 14" fill="none" xmlns="http://www.w3.org/2000/svg">
<path d="M14.7307 1.37008C13.9025 0.486588 12.766 0 11.5304 0C10.6068 0 9.76099 0.287175 9.01636 0.85348C8.64062 1.13933 8.30017 1.48906 8 1.89725C7.69995 1.48918 7.35938 1.13933 6.98352 0.85348C6.23901 0.287175 5.39319 0 4.4696 0C3.23401 0 2.09741 0.486588 1.26917 1.37008C0.450806 2.24325 0 3.43613 0 4.72914C0 6.05996 0.504272 7.27817 1.58691 8.56301C2.55542 9.71231 3.94739 10.879 5.55933 12.23C6.10974 12.6914 6.73364 13.2144 7.38147 13.7714C7.55261 13.9188 7.77222 14 8 14C8.22766 14 8.44739 13.9188 8.61829 13.7717C9.26611 13.2145 9.89038 12.6913 10.441 12.2297C12.0527 10.8789 13.4447 9.71231 14.4132 8.56289C15.4958 7.27817 16 6.05996 16 4.72902C16 3.43613 15.5492 2.24325 14.7307 1.37008Z" fill="url(#paint0_linear)"/>
<defs>
<linearGradient id="paint0_linear" x1="0" y1="0" x2="17.4629" y2="2.15718" gradientUnits="userSpaceOnUse">
<stop stop-color="#A45410"/>
<stop offset="1" stop-color="#FBEFB7"/>
</linearGradient>
</defs>
</svg>
