<svg width="14" height="105" viewBox="0 0 14 105" fill="none" xmlns="http://www.w3.org/2000/svg">
<path d="M1.552 100.331L1.552 104.759L0.399998 104.759L0.399998 94.5711L1.552 94.5711L1.552 98.9991L13 98.9991L13 100.331L1.552 100.331ZM13.108 87.1109C13.108 88.3589 12.832 89.4929 12.28 90.5129C11.716 91.5209 10.948 92.3129 9.976 92.8889C9.004 93.4529 7.912 93.7349 6.7 93.7349C5.488 93.7349 4.396 93.4529 3.424 92.8889C2.452 92.3129 1.69 91.5209 1.138 90.5129C0.573998 89.4929 0.291998 88.3589 0.291998 87.1109C0.291998 85.8629 0.567998 84.7409 1.12 83.7449C1.672 82.7369 2.44 81.9449 3.424 81.3689C4.396 80.7929 5.488 80.5049 6.7 80.5049C7.912 80.5049 9.01 80.7929 9.994 81.3689C10.966 81.9449 11.728 82.7369 12.28 83.7449C12.832 84.7409 13.108 85.8629 13.108 87.1109ZM11.92 87.1109C11.92 86.1149 11.698 85.2149 11.254 84.4109C10.798 83.6069 10.174 82.9769 9.382 82.5209C8.578 82.0649 7.684 81.8369 6.7 81.8369C5.716 81.8369 4.828 82.0649 4.036 82.5209C3.232 82.9769 2.608 83.6069 2.164 84.4109C1.708 85.2149 1.48 86.1149 1.48 87.1109C1.48 88.1069 1.708 89.0129 2.164 89.8289C2.608 90.6329 3.232 91.2689 4.036 91.7369C4.828 92.1929 5.716 92.4209 6.7 92.4209C7.684 92.4209 8.578 92.1929 9.382 91.7369C10.174 91.2689 10.798 90.6329 11.254 89.8289C11.698 89.0129 11.92 88.1069 11.92 87.1109ZM0.399997 72.8033C0.399997 71.1953 0.783997 69.9353 1.552 69.0233C2.32 68.1113 3.376 67.6553 4.72 67.6553C6.064 67.6553 7.12 68.1113 7.888 69.0233C8.644 69.9353 9.022 71.1953 9.022 72.8033L9.022 76.1873L13 76.1873L13 77.5193L0.399997 77.5193L0.399997 72.8033ZM7.852 72.8393C7.852 71.5913 7.582 70.6373 7.042 69.9773C6.49 69.3173 5.716 68.9873 4.72 68.9873C3.7 68.9873 2.92 69.3173 2.38 69.9773C1.828 70.6373 1.552 71.5913 1.552 72.8393L1.552 76.1873L7.852 76.1873L7.852 72.8393ZM13.108 56.4144C13.108 57.3504 12.958 58.2504 12.658 59.1144C12.358 59.9664 11.962 60.6264 11.47 61.0944L10.444 60.5724C10.9 60.1164 11.272 59.5104 11.56 58.7544C11.836 57.9984 11.974 57.2184 11.974 56.4144C11.974 55.2864 11.77 54.4404 11.362 53.8764C10.942 53.3124 10.402 53.0304 9.742 53.0304C9.238 53.0304 8.836 53.1864 8.536 53.4984C8.236 53.7984 8.008 54.1704 7.852 54.6144C7.684 55.0584 7.504 55.6764 7.312 56.4684C7.072 57.4164 6.844 58.1724 6.628 58.7364C6.4 59.3004 6.058 59.7864 5.602 60.1944C5.146 60.5904 4.528 60.7884 3.748 60.7884C3.112 60.7884 2.536 60.6204 2.02 60.2844C1.492 59.9484 1.072 59.4324 0.759997 58.7364C0.447997 58.0404 0.291996 57.1764 0.291996 56.1444C0.291996 55.4244 0.393996 54.7224 0.597997 54.0384C0.789996 53.3424 1.06 52.7424 1.408 52.2384L2.47 52.6884C2.122 53.2164 1.864 53.7804 1.696 54.3804C1.516 54.9804 1.426 55.5684 1.426 56.1444C1.426 57.2484 1.642 58.0824 2.074 58.6464C2.494 59.1984 3.04 59.4744 3.712 59.4744C4.216 59.4744 4.624 59.3244 4.936 59.0244C5.236 58.7124 5.47 58.3284 5.638 57.8724C5.794 57.4044 5.968 56.7804 6.16 56.0004C6.388 55.0764 6.616 54.3324 6.844 53.7684C7.06 53.1924 7.396 52.7064 7.852 52.3104C8.296 51.9144 8.902 51.7164 9.67 51.7164C10.306 51.7164 10.888 51.8904 11.416 52.2384C11.932 52.5744 12.346 53.0964 12.658 53.8044C12.958 54.5124 13.108 55.3824 13.108 56.4144ZM0.399996 44.0982C0.399995 42.4902 0.783995 41.2302 1.552 40.3182C2.32 39.4062 3.376 38.9502 4.72 38.9502C6.064 38.9502 7.12 39.4062 7.888 40.3182C8.644 41.2302 9.022 42.4902 9.022 44.0982L9.022 47.4822L13 47.4822L13 48.8142L0.399996 48.8142L0.399996 44.0982ZM7.852 44.1342C7.852 42.8862 7.582 41.9322 7.042 41.2722C6.49 40.6122 5.716 40.2822 4.72 40.2822C3.7 40.2822 2.92 40.6122 2.38 41.2722C1.828 41.9322 1.552 42.8862 1.552 44.1342L1.552 47.4822L7.852 47.4822L7.852 44.1342ZM11.848 27.1601L13 27.1601L13 36.0701L0.399995 36.0701L0.399995 27.4301L1.552 27.4301L1.552 34.7381L6.034 34.7381L6.034 28.2221L7.168 28.2221L7.168 34.7381L11.848 34.7381L11.848 27.1601ZM11.848 15.1191L13 15.1191L13 24.0291L0.399995 24.0291L0.399994 15.3891L1.55199 15.3891L1.55199 22.6971L6.034 22.6971L6.03399 16.1811L7.168 16.1811L7.168 22.6971L11.848 22.6971L11.848 15.1191ZM0.399994 11.988L0.399994 6.85804C0.399994 5.52604 0.669994 4.35004 1.20999 3.33004C1.73799 2.31004 2.48199 1.51804 3.44199 0.954038C4.38999 0.390038 5.47599 0.108038 6.69999 0.108038C7.92399 0.108038 9.01599 0.390038 9.97599 0.954038C10.924 1.51804 11.668 2.31004 12.208 3.33004C12.736 4.35004 13 5.52604 13 6.85804L13 11.988L0.399994 11.988ZM11.848 6.93004C11.848 5.82604 11.632 4.86004 11.2 4.03204C10.756 3.20404 10.15 2.56204 9.38199 2.10604C8.60199 1.65004 7.70799 1.42204 6.69999 1.42204C5.69199 1.42204 4.80399 1.65004 4.03599 2.10604C3.25599 2.56204 2.64999 3.20404 2.21799 4.03204C1.77399 4.86004 1.55199 5.82604 1.55199 6.93004L1.55199 10.656L11.848 10.656L11.848 6.93004Z" fill="#3F3E44"/>
</svg>
