<svg width="383" height="106" viewBox="0 0 383 106" fill="none" xmlns="http://www.w3.org/2000/svg">
<path d="M3.072 9H3.684V1.152H6.708V0.599999H0.048V1.152H3.072V9ZM11.0937 2.688C9.92972 2.688 9.06572 3.192 8.63372 4.044V0.0959995H8.03372V9H8.63372V5.664C8.63372 4.176 9.53372 3.228 11.0097 3.228C12.2817 3.228 13.0377 3.972 13.0377 5.388V9H13.6377V5.34C13.6377 3.588 12.6177 2.688 11.0937 2.688ZM21.4237 5.844C21.4237 3.984 20.1517 2.688 18.4357 2.688C16.7197 2.688 15.4357 4.008 15.4357 5.868C15.4357 7.728 16.7677 9.048 18.6637 9.048C19.6117 9.048 20.4757 8.7 21.0277 8.028L20.6797 7.632C20.1997 8.22 19.4677 8.508 18.6757 8.508C17.1757 8.508 16.0837 7.5 16.0237 6.012H21.4117C21.4117 5.952 21.4237 5.892 21.4237 5.844ZM18.4357 3.216C19.7677 3.216 20.7517 4.188 20.8357 5.544H16.0357C16.1317 4.176 17.1037 3.216 18.4357 3.216ZM29.5058 2.688C28.4018 2.688 27.4658 3.228 26.9618 4.164V0.0959995H26.3618V9H26.9378V7.524C27.4298 8.484 28.3778 9.048 29.5058 9.048C31.2698 9.048 32.6018 7.74 32.6018 5.868C32.6018 3.984 31.2698 2.688 29.5058 2.688ZM29.4698 8.508C28.0298 8.508 26.9498 7.44 26.9498 5.868C26.9498 4.296 28.0298 3.228 29.4698 3.228C30.9098 3.228 32.0018 4.296 32.0018 5.868C32.0018 7.44 30.9098 8.508 29.4698 8.508ZM34.7595 1.212C35.0355 1.212 35.2515 0.995999 35.2515 0.719999C35.2515 0.456 35.0355 0.24 34.7595 0.24C34.4835 0.24 34.2675 0.468 34.2675 0.732C34.2675 0.995999 34.4835 1.212 34.7595 1.212ZM34.4595 9H35.0595V2.736H34.4595V9ZM42.4844 9H43.2284L40.2644 5.268L42.9644 2.736H42.1964L38.1884 6.396V0.0959995H37.5884V9H38.1884V7.14L39.8204 5.652L42.4844 9ZM49.6893 5.844C49.6893 3.984 48.4173 2.688 46.7013 2.688C44.9853 2.688 43.7013 4.008 43.7013 5.868C43.7013 7.728 45.0333 9.048 46.9293 9.048C47.8773 9.048 48.7413 8.7 49.2933 8.028L48.9453 7.632C48.4653 8.22 47.7333 8.508 46.9413 8.508C45.4413 8.508 44.3493 7.5 44.2893 6.012H49.6773C49.6773 5.952 49.6893 5.892 49.6893 5.844ZM46.7013 3.216C48.0333 3.216 49.0173 4.188 49.1013 5.544H44.3013C44.3973 4.176 45.3693 3.216 46.7013 3.216ZM57.1115 9.048C58.1075 9.048 58.9715 8.652 59.4875 7.896L59.0435 7.572C58.5875 8.208 57.8915 8.508 57.1115 8.508C55.6355 8.508 54.5555 7.452 54.5555 5.868C54.5555 4.284 55.6355 3.228 57.1115 3.228C57.8915 3.228 58.5875 3.528 59.0435 4.164L59.4875 3.84C58.9715 3.072 58.1075 2.688 57.1115 2.688C55.2755 2.688 53.9435 3.996 53.9435 5.868C53.9435 7.728 55.2755 9.048 57.1115 9.048ZM63.6263 9.048C65.4263 9.048 66.7583 7.728 66.7583 5.868C66.7583 4.008 65.4263 2.688 63.6263 2.688C61.8263 2.688 60.4943 4.008 60.4943 5.868C60.4943 7.728 61.8263 9.048 63.6263 9.048ZM63.6263 8.508C62.1863 8.508 61.1063 7.44 61.1063 5.868C61.1063 4.296 62.1863 3.228 63.6263 3.228C65.0663 3.228 66.1463 4.296 66.1463 5.868C66.1463 7.44 65.0663 8.508 63.6263 8.508ZM76.4197 2.688C75.2077 2.688 74.2957 3.288 73.8877 4.2C73.5517 3.204 72.7237 2.688 71.5957 2.688C70.4557 2.688 69.6037 3.204 69.1957 4.08V2.736H68.6197V9H69.2197V5.664C69.2197 4.176 70.0957 3.228 71.5117 3.228C72.7357 3.228 73.4677 3.972 73.4677 5.388V9H74.0677V5.664C74.0677 4.176 74.9437 3.228 76.3597 3.228C77.5837 3.228 78.3157 3.972 78.3157 5.388V9H78.9157V5.34C78.9157 3.588 77.9317 2.688 76.4197 2.688ZM86.7088 5.844C86.7088 3.984 85.4368 2.688 83.7208 2.688C82.0048 2.688 80.7208 4.008 80.7208 5.868C80.7208 7.728 82.0528 9.048 83.9488 9.048C84.8968 9.048 85.7608 8.7 86.3128 8.028L85.9648 7.632C85.4848 8.22 84.7528 8.508 83.9608 8.508C82.4608 8.508 81.3688 7.5 81.3088 6.012H86.6968C86.6968 5.952 86.7088 5.892 86.7088 5.844ZM83.7208 3.216C85.0528 3.216 86.0368 4.188 86.1208 5.544H81.3208C81.4168 4.176 82.3888 3.216 83.7208 3.216ZM90.149 9.048C91.745 9.048 92.621 8.352 92.621 7.332C92.621 4.944 88.469 6.276 88.469 4.392C88.469 3.72 89.009 3.216 90.233 3.216C90.905 3.216 91.589 3.396 92.117 3.78L92.393 3.3C91.901 2.928 91.037 2.688 90.245 2.688C88.661 2.688 87.869 3.456 87.869 4.404C87.869 6.864 92.021 5.52 92.021 7.344C92.021 8.052 91.493 8.52 90.173 8.52C89.249 8.52 88.397 8.172 87.917 7.764L87.641 8.244C88.133 8.7 89.117 9.048 90.149 9.048ZM97.6775 1.212C97.9535 1.212 98.1695 0.995999 98.1695 0.719999C98.1695 0.456 97.9535 0.24 97.6775 0.24C97.4015 0.24 97.1855 0.468 97.1855 0.732C97.1855 0.995999 97.4015 1.212 97.6775 1.212ZM97.3775 9H97.9775V2.736H97.3775V9ZM103.566 2.688C102.378 2.688 101.502 3.216 101.082 4.092V2.736H100.506V9H101.106V5.664C101.106 4.176 102.006 3.228 103.482 3.228C104.754 3.228 105.51 3.972 105.51 5.388V9H106.11V5.34C106.11 3.588 105.09 2.688 103.566 2.688ZM113.775 2.688C112.803 2.688 111.891 3.024 111.267 3.576L111.567 4.008C112.083 3.54 112.863 3.216 113.727 3.216C114.951 3.216 115.587 3.84 115.587 5.004V5.508H113.439C111.699 5.508 111.099 6.312 111.099 7.26C111.099 8.328 111.951 9.048 113.355 9.048C114.447 9.048 115.215 8.604 115.611 7.884V9H116.187V5.028C116.187 3.48 115.323 2.688 113.775 2.688ZM113.439 8.556C112.335 8.556 111.699 8.052 111.699 7.236C111.699 6.516 112.155 5.976 113.451 5.976H115.587V7.152C115.227 8.052 114.495 8.556 113.439 8.556ZM118.659 9H119.259V0.0959995H118.659V9ZM121.788 9H122.388V0.0959995H121.788V9ZM131.143 2.688C130.039 2.688 129.103 3.228 128.599 4.164V0.0959995H127.999V9H128.575V7.524C129.067 8.484 130.015 9.048 131.143 9.048C132.907 9.048 134.239 7.74 134.239 5.868C134.239 3.984 132.907 2.688 131.143 2.688ZM131.107 8.508C129.667 8.508 128.587 7.44 128.587 5.868C128.587 4.296 129.667 3.228 131.107 3.228C132.547 3.228 133.639 4.296 133.639 5.868C133.639 7.44 132.547 8.508 131.107 8.508ZM136.096 9H136.696V0.0959995H136.096V9ZM141.337 2.688C140.365 2.688 139.453 3.024 138.829 3.576L139.129 4.008C139.645 3.54 140.425 3.216 141.289 3.216C142.513 3.216 143.149 3.84 143.149 5.004V5.508H141.001C139.261 5.508 138.661 6.312 138.661 7.26C138.661 8.328 139.513 9.048 140.917 9.048C142.009 9.048 142.777 8.604 143.173 7.884V9H143.749V5.028C143.749 3.48 142.885 2.688 141.337 2.688ZM141.001 8.556C139.897 8.556 139.261 8.052 139.261 7.236C139.261 6.516 139.717 5.976 141.013 5.976H143.149V7.152C142.789 8.052 142.057 8.556 141.001 8.556ZM148.717 9.048C149.713 9.048 150.577 8.652 151.093 7.896L150.649 7.572C150.193 8.208 149.497 8.508 148.717 8.508C147.241 8.508 146.161 7.452 146.161 5.868C146.161 4.284 147.241 3.228 148.717 3.228C149.497 3.228 150.193 3.528 150.649 4.164L151.093 3.84C150.577 3.072 149.713 2.688 148.717 2.688C146.881 2.688 145.549 3.996 145.549 5.868C145.549 7.728 146.881 9.048 148.717 9.048ZM157.68 9H158.424L155.46 5.268L158.16 2.736H157.392L153.384 6.396V0.0959995H152.784V9H153.384V7.14L155.016 5.652L157.68 9ZM159.884 8.028C159.596 8.028 159.38 8.244 159.38 8.532C159.38 8.784 159.536 8.964 159.776 9.024L159.38 10.716H159.812L160.28 9.084C160.352 8.832 160.388 8.712 160.388 8.532C160.388 8.268 160.184 8.028 159.884 8.028ZM173.84 2.736L171.728 8.316L169.604 2.736H169.088L166.952 8.328L164.864 2.736H164.288L166.664 9H167.216L169.34 3.564L171.452 9H172.016L174.392 2.736H173.84ZM176.088 1.212C176.364 1.212 176.58 0.995999 176.58 0.719999C176.58 0.456 176.364 0.24 176.088 0.24C175.812 0.24 175.596 0.468 175.596 0.732C175.596 0.995999 175.812 1.212 176.088 1.212ZM175.788 9H176.388V2.736H175.788V9ZM181.773 8.184C181.521 8.412 181.173 8.532 180.801 8.532C180.033 8.532 179.637 8.088 179.637 7.284V3.252H181.629V2.736H179.637V1.368H179.037V2.736H177.885V3.252H179.037V7.344C179.037 8.4 179.637 9.048 180.741 9.048C181.209 9.048 181.713 8.904 182.025 8.604L181.773 8.184ZM186.758 2.688C185.594 2.688 184.73 3.192 184.298 4.044V0.0959995H183.698V9H184.298V5.664C184.298 4.176 185.198 3.228 186.674 3.228C187.946 3.228 188.702 3.972 188.702 5.388V9H189.302V5.34C189.302 3.588 188.282 2.688 186.758 2.688ZM196.966 2.688C195.994 2.688 195.082 3.024 194.458 3.576L194.758 4.008C195.274 3.54 196.054 3.216 196.918 3.216C198.142 3.216 198.778 3.84 198.778 5.004V5.508H196.63C194.89 5.508 194.29 6.312 194.29 7.26C194.29 8.328 195.142 9.048 196.546 9.048C197.638 9.048 198.406 8.604 198.802 7.884V9H199.378V5.028C199.378 3.48 198.514 2.688 196.966 2.688ZM196.63 8.556C195.526 8.556 194.89 8.052 194.89 7.236C194.89 6.516 195.346 5.976 196.642 5.976H198.778V7.152C198.418 8.052 197.686 8.556 196.63 8.556ZM205.508 4.104V2.736H204.932V9H205.532V5.736C205.532 4.188 206.36 3.264 207.752 3.264C207.8 3.264 207.848 3.276 207.896 3.276V2.688C206.72 2.688 205.892 3.192 205.508 4.104ZM214.795 5.844C214.795 3.984 213.523 2.688 211.807 2.688C210.091 2.688 208.807 4.008 208.807 5.868C208.807 7.728 210.139 9.048 212.035 9.048C212.983 9.048 213.847 8.7 214.399 8.028L214.051 7.632C213.571 8.22 212.839 8.508 212.047 8.508C210.547 8.508 209.455 7.5 209.395 6.012H214.783C214.783 5.952 214.795 5.892 214.795 5.844ZM211.807 3.216C213.139 3.216 214.123 4.188 214.207 5.544H209.407C209.503 4.176 210.475 3.216 211.807 3.216ZM216.651 9H217.251V0.0959995H216.651V9ZM221.892 2.688C220.92 2.688 220.008 3.024 219.384 3.576L219.684 4.008C220.2 3.54 220.98 3.216 221.844 3.216C223.068 3.216 223.704 3.84 223.704 5.004V5.508H221.556C219.816 5.508 219.216 6.312 219.216 7.26C219.216 8.328 220.068 9.048 221.472 9.048C222.564 9.048 223.332 8.604 223.728 7.884V9H224.304V5.028C224.304 3.48 223.44 2.688 221.892 2.688ZM221.556 8.556C220.452 8.556 219.816 8.052 219.816 7.236C219.816 6.516 220.272 5.976 221.568 5.976H223.704V7.152C223.344 8.052 222.612 8.556 221.556 8.556ZM229.632 8.184C229.38 8.412 229.032 8.532 228.66 8.532C227.892 8.532 227.496 8.088 227.496 7.284V3.252H229.488V2.736H227.496V1.368H226.896V2.736H225.744V3.252H226.896V7.344C226.896 8.4 227.496 9.048 228.6 9.048C229.068 9.048 229.572 8.904 229.884 8.604L229.632 8.184ZM231.857 1.212C232.133 1.212 232.349 0.995999 232.349 0.719999C232.349 0.456 232.133 0.24 231.857 0.24C231.581 0.24 231.365 0.468 231.365 0.732C231.365 0.995999 231.581 1.212 231.857 1.212ZM231.557 9H232.157V2.736H231.557V9ZM239.102 2.736L236.582 8.34L234.086 2.736H233.45L236.27 9H236.882L239.714 2.736H239.102ZM246.154 5.844C246.154 3.984 244.882 2.688 243.166 2.688C241.45 2.688 240.166 4.008 240.166 5.868C240.166 7.728 241.498 9.048 243.394 9.048C244.342 9.048 245.206 8.7 245.758 8.028L245.41 7.632C244.93 8.22 244.198 8.508 243.406 8.508C241.906 8.508 240.814 7.5 240.754 6.012H246.142C246.142 5.952 246.154 5.892 246.154 5.844ZM243.166 3.216C244.498 3.216 245.482 4.188 245.566 5.544H240.766C240.862 4.176 241.834 3.216 243.166 3.216ZM248.01 9H248.61V0.0959995H248.01V9ZM255.555 2.736L253.047 8.34L250.539 2.736H249.903L252.723 8.976L252.387 9.732C252.003 10.584 251.583 10.848 251.007 10.848C250.539 10.848 250.167 10.692 249.843 10.356L249.543 10.812C249.903 11.184 250.431 11.376 250.995 11.376C251.823 11.376 252.447 11.004 252.951 9.852L256.167 2.736H255.555ZM268.361 2.688C267.149 2.688 266.237 3.288 265.829 4.2C265.493 3.204 264.665 2.688 263.537 2.688C262.397 2.688 261.545 3.204 261.137 4.08V2.736H260.561V9H261.161V5.664C261.161 4.176 262.037 3.228 263.453 3.228C264.677 3.228 265.409 3.972 265.409 5.388V9H266.009V5.664C266.009 4.176 266.885 3.228 268.301 3.228C269.525 3.228 270.257 3.972 270.257 5.388V9H270.857V5.34C270.857 3.588 269.873 2.688 268.361 2.688ZM275.794 9.048C277.594 9.048 278.926 7.728 278.926 5.868C278.926 4.008 277.594 2.688 275.794 2.688C273.994 2.688 272.662 4.008 272.662 5.868C272.662 7.728 273.994 9.048 275.794 9.048ZM275.794 8.508C274.354 8.508 273.274 7.44 273.274 5.868C273.274 4.296 274.354 3.228 275.794 3.228C277.234 3.228 278.314 4.296 278.314 5.868C278.314 7.44 277.234 8.508 275.794 8.508ZM285.756 0.0959995V4.188C285.252 3.24 284.316 2.688 283.2 2.688C281.436 2.688 280.104 3.984 280.104 5.868C280.104 7.74 281.436 9.048 283.2 9.048C284.328 9.048 285.276 8.496 285.768 7.524V9H286.356V0.0959995H285.756ZM283.236 8.508C281.796 8.508 280.716 7.44 280.716 5.868C280.716 4.296 281.796 3.228 283.236 3.228C284.676 3.228 285.756 4.296 285.756 5.868C285.756 7.44 284.676 8.508 283.236 8.508ZM294.189 5.844C294.189 3.984 292.917 2.688 291.201 2.688C289.485 2.688 288.201 4.008 288.201 5.868C288.201 7.728 289.533 9.048 291.429 9.048C292.377 9.048 293.241 8.7 293.793 8.028L293.445 7.632C292.965 8.22 292.233 8.508 291.441 8.508C289.941 8.508 288.849 7.5 288.789 6.012H294.177C294.177 5.952 294.189 5.892 294.189 5.844ZM291.201 3.216C292.533 3.216 293.517 4.188 293.601 5.544H288.801C288.897 4.176 289.869 3.216 291.201 3.216ZM296.621 4.104V2.736H296.045V9H296.645V5.736C296.645 4.188 297.473 3.264 298.865 3.264C298.913 3.264 298.961 3.276 299.009 3.276V2.688C297.833 2.688 297.005 3.192 296.621 4.104ZM303.723 2.688C302.535 2.688 301.659 3.216 301.239 4.092V2.736H300.663V9H301.263V5.664C301.263 4.176 302.163 3.228 303.639 3.228C304.911 3.228 305.667 3.972 305.667 5.388V9H306.267V5.34C306.267 3.588 305.247 2.688 303.723 2.688ZM313.931 2.688C312.959 2.688 312.047 3.024 311.423 3.576L311.723 4.008C312.239 3.54 313.019 3.216 313.883 3.216C315.107 3.216 315.743 3.84 315.743 5.004V5.508H313.595C311.855 5.508 311.255 6.312 311.255 7.26C311.255 8.328 312.107 9.048 313.511 9.048C314.603 9.048 315.371 8.604 315.767 7.884V9H316.343V5.028C316.343 3.48 315.479 2.688 313.931 2.688ZM313.595 8.556C312.491 8.556 311.855 8.052 311.855 7.236C311.855 6.516 312.311 5.976 313.607 5.976H315.743V7.152C315.383 8.052 314.651 8.556 313.595 8.556ZM321.959 2.688C320.831 2.688 319.883 3.252 319.391 4.212V2.736H318.815V11.328H319.415V7.572C319.919 8.508 320.855 9.048 321.959 9.048C323.723 9.048 325.055 7.752 325.055 5.868C325.055 3.996 323.723 2.688 321.959 2.688ZM321.923 8.508C320.483 8.508 319.403 7.44 319.403 5.868C319.403 4.296 320.483 3.228 321.923 3.228C323.363 3.228 324.455 4.296 324.455 5.868C324.455 7.44 323.363 8.508 321.923 8.508ZM330.057 2.688C328.929 2.688 327.981 3.252 327.489 4.212V2.736H326.913V11.328H327.513V7.572C328.017 8.508 328.953 9.048 330.057 9.048C331.821 9.048 333.153 7.752 333.153 5.868C333.153 3.996 331.821 2.688 330.057 2.688ZM330.021 8.508C328.581 8.508 327.501 7.44 327.501 5.868C327.501 4.296 328.581 3.228 330.021 3.228C331.461 3.228 332.553 4.296 332.553 5.868C332.553 7.44 331.461 8.508 330.021 8.508ZM340.314 5.844C340.314 3.984 339.042 2.688 337.326 2.688C335.61 2.688 334.326 4.008 334.326 5.868C334.326 7.728 335.658 9.048 337.554 9.048C338.502 9.048 339.366 8.7 339.918 8.028L339.57 7.632C339.09 8.22 338.358 8.508 337.566 8.508C336.066 8.508 334.974 7.5 334.914 6.012H340.302C340.302 5.952 340.314 5.892 340.314 5.844ZM337.326 3.216C338.658 3.216 339.642 4.188 339.726 5.544H334.926C335.022 4.176 335.994 3.216 337.326 3.216ZM344.107 2.688C343.135 2.688 342.223 3.024 341.599 3.576L341.899 4.008C342.415 3.54 343.195 3.216 344.059 3.216C345.283 3.216 345.919 3.84 345.919 5.004V5.508H343.771C342.031 5.508 341.431 6.312 341.431 7.26C341.431 8.328 342.283 9.048 343.687 9.048C344.779 9.048 345.547 8.604 345.943 7.884V9H346.519V5.028C346.519 3.48 345.655 2.688 344.107 2.688ZM343.771 8.556C342.667 8.556 342.031 8.052 342.031 7.236C342.031 6.516 342.487 5.976 343.783 5.976H345.919V7.152C345.559 8.052 344.827 8.556 343.771 8.556ZM348.991 9H349.591V0.0959995H348.991V9ZM352.048 9.048C352.324 9.048 352.552 8.82 352.552 8.532C352.552 8.244 352.324 8.028 352.048 8.028C351.772 8.028 351.544 8.244 351.544 8.532C351.544 8.82 351.772 9.048 352.048 9.048ZM5.016 33.06C6.204 33.06 7.272 32.664 8.004 31.884L7.62 31.488C6.9 32.196 6.024 32.496 5.04 32.496C2.892 32.496 1.272 30.912 1.272 28.8C1.272 26.688 2.892 25.104 5.04 25.104C6.024 25.104 6.9 25.392 7.62 26.1L8.004 25.704C7.272 24.924 6.204 24.54 5.016 24.54C2.52 24.54 0.66 26.352 0.66 28.8C0.66 31.248 2.52 33.06 5.016 33.06ZM12.9218 26.688C11.7578 26.688 10.8938 27.192 10.4618 28.044V24.096H9.86184V33H10.4618V29.664C10.4618 28.176 11.3618 27.228 12.8378 27.228C14.1098 27.228 14.8658 27.972 14.8658 29.388V33H15.4658V29.34C15.4658 27.588 14.4458 26.688 12.9218 26.688ZM18.5121 28.104V26.736H17.9361V33H18.5361V29.736C18.5361 28.188 19.3641 27.264 20.7561 27.264C20.8041 27.264 20.8521 27.276 20.9001 27.276V26.688C19.7241 26.688 18.8961 27.192 18.5121 28.104ZM24.9427 33.048C26.7427 33.048 28.0747 31.728 28.0747 29.868C28.0747 28.008 26.7427 26.688 24.9427 26.688C23.1427 26.688 21.8107 28.008 21.8107 29.868C21.8107 31.728 23.1427 33.048 24.9427 33.048ZM24.9427 32.508C23.5027 32.508 22.4227 31.44 22.4227 29.868C22.4227 28.296 23.5027 27.228 24.9427 27.228C26.3827 27.228 27.4627 28.296 27.4627 29.868C27.4627 31.44 26.3827 32.508 24.9427 32.508ZM37.7361 26.688C36.5241 26.688 35.6121 27.288 35.2041 28.2C34.8681 27.204 34.0401 26.688 32.9121 26.688C31.7721 26.688 30.9201 27.204 30.5121 28.08V26.736H29.9361V33H30.5361V29.664C30.5361 28.176 31.4121 27.228 32.8281 27.228C34.0521 27.228 34.7841 27.972 34.7841 29.388V33H35.3841V29.664C35.3841 28.176 36.2601 27.228 37.6761 27.228C38.9001 27.228 39.6321 27.972 39.6321 29.388V33H40.2321V29.34C40.2321 27.588 39.2481 26.688 37.7361 26.688ZM48.0252 29.844C48.0252 27.984 46.7532 26.688 45.0372 26.688C43.3212 26.688 42.0372 28.008 42.0372 29.868C42.0372 31.728 43.3692 33.048 45.2652 33.048C46.2132 33.048 47.0772 32.7 47.6292 32.028L47.2812 31.632C46.8012 32.22 46.0692 32.508 45.2772 32.508C43.7772 32.508 42.6852 31.5 42.6252 30.012H48.0132C48.0132 29.952 48.0252 29.892 48.0252 29.844ZM45.0372 27.216C46.3692 27.216 47.3532 28.188 47.4372 29.544H42.6372C42.7332 28.176 43.7052 27.216 45.0372 27.216ZM55.0754 26.688C54.1034 26.688 53.1914 27.024 52.5674 27.576L52.8674 28.008C53.3834 27.54 54.1634 27.216 55.0274 27.216C56.2514 27.216 56.8874 27.84 56.8874 29.004V29.508H54.7394C52.9994 29.508 52.3994 30.312 52.3994 31.26C52.3994 32.328 53.2514 33.048 54.6554 33.048C55.7474 33.048 56.5154 32.604 56.9114 31.884V33H57.4874V29.028C57.4874 27.48 56.6234 26.688 55.0754 26.688ZM54.7394 32.556C53.6354 32.556 52.9994 32.052 52.9994 31.236C52.9994 30.516 53.4554 29.976 54.7514 29.976H56.8874V31.152C56.5274 32.052 55.7954 32.556 54.7394 32.556ZM62.4552 33.048C63.4512 33.048 64.3152 32.652 64.8312 31.896L64.3872 31.572C63.9312 32.208 63.2352 32.508 62.4552 32.508C60.9792 32.508 59.8992 31.452 59.8992 29.868C59.8992 28.284 60.9792 27.228 62.4552 27.228C63.2352 27.228 63.9312 27.528 64.3872 28.164L64.8312 27.84C64.3152 27.072 63.4512 26.688 62.4552 26.688C60.6192 26.688 59.2872 27.996 59.2872 29.868C59.2872 31.728 60.6192 33.048 62.4552 33.048ZM69.006 33.048C70.002 33.048 70.866 32.652 71.382 31.896L70.938 31.572C70.482 32.208 69.786 32.508 69.006 32.508C67.53 32.508 66.45 31.452 66.45 29.868C66.45 28.284 67.53 27.228 69.006 27.228C69.786 27.228 70.482 27.528 70.938 28.164L71.382 27.84C70.866 27.072 70.002 26.688 69.006 26.688C67.17 26.688 65.838 27.996 65.838 29.868C65.838 31.728 67.17 33.048 69.006 33.048ZM78.3768 29.844C78.3768 27.984 77.1048 26.688 75.3888 26.688C73.6728 26.688 72.3888 28.008 72.3888 29.868C72.3888 31.728 73.7208 33.048 75.6168 33.048C76.5648 33.048 77.4288 32.7 77.9808 32.028L77.6328 31.632C77.1528 32.22 76.4208 32.508 75.6288 32.508C74.1288 32.508 73.0368 31.5 72.9768 30.012H78.3648C78.3648 29.952 78.3768 29.892 78.3768 29.844ZM75.3888 27.216C76.7208 27.216 77.7048 28.188 77.7888 29.544H72.9888C73.0848 28.176 74.0568 27.216 75.3888 27.216ZM83.2929 26.688C82.1049 26.688 81.2289 27.216 80.8089 28.092V26.736H80.2329V33H80.8329V29.664C80.8329 28.176 81.7329 27.228 83.2089 27.228C84.4809 27.228 85.2369 27.972 85.2369 29.388V33H85.8369V29.34C85.8369 27.588 84.8169 26.688 83.2929 26.688ZM91.1632 32.184C90.9112 32.412 90.5632 32.532 90.1912 32.532C89.4232 32.532 89.0272 32.088 89.0272 31.284V27.252H91.0192V26.736H89.0272V25.368H88.4272V26.736H87.2752V27.252H88.4272V31.344C88.4272 32.4 89.0272 33.048 90.1312 33.048C90.5992 33.048 91.1032 32.904 91.4152 32.604L91.1632 32.184ZM94.6724 33.048C96.2684 33.048 97.1444 32.352 97.1444 31.332C97.1444 28.944 92.9924 30.276 92.9924 28.392C92.9924 27.72 93.5324 27.216 94.7564 27.216C95.4284 27.216 96.1124 27.396 96.6404 27.78L96.9164 27.3C96.4244 26.928 95.5604 26.688 94.7684 26.688C93.1844 26.688 92.3924 27.456 92.3924 28.404C92.3924 30.864 96.5444 29.52 96.5444 31.344C96.5444 32.052 96.0164 32.52 94.6964 32.52C93.7724 32.52 92.9204 32.172 92.4404 31.764L92.1644 32.244C92.6564 32.7 93.6404 33.048 94.6724 33.048ZM102.201 25.212C102.477 25.212 102.693 24.996 102.693 24.72C102.693 24.456 102.477 24.24 102.201 24.24C101.925 24.24 101.709 24.468 101.709 24.732C101.709 24.996 101.925 25.212 102.201 25.212ZM101.901 33H102.501V26.736H101.901V33ZM108.09 26.688C106.902 26.688 106.026 27.216 105.606 28.092V26.736H105.03V33H105.63V29.664C105.63 28.176 106.53 27.228 108.006 27.228C109.278 27.228 110.034 27.972 110.034 29.388V33H110.634V29.34C110.634 27.588 109.614 26.688 108.09 26.688ZM116.546 25.212C116.822 25.212 117.038 24.996 117.038 24.72C117.038 24.456 116.822 24.24 116.546 24.24C116.27 24.24 116.054 24.468 116.054 24.732C116.054 24.996 116.27 25.212 116.546 25.212ZM115.154 35.376C116.246 35.376 116.846 34.68 116.846 33.624V26.736H116.246V33.6C116.246 34.416 115.85 34.86 115.118 34.86C114.71 34.86 114.35 34.74 114.098 34.512L113.858 34.956C114.158 35.244 114.65 35.376 115.154 35.376ZM124.258 26.736V30.072C124.258 31.56 123.382 32.508 121.966 32.508C120.658 32.508 119.902 31.764 119.902 30.348V26.736H119.302V30.396C119.302 32.148 120.322 33.048 121.918 33.048C123.022 33.048 123.874 32.532 124.282 31.656V33H124.858V26.736H124.258ZM128.985 33.048C130.581 33.048 131.457 32.352 131.457 31.332C131.457 28.944 127.305 30.276 127.305 28.392C127.305 27.72 127.845 27.216 129.069 27.216C129.741 27.216 130.425 27.396 130.953 27.78L131.229 27.3C130.737 26.928 129.873 26.688 129.081 26.688C127.497 26.688 126.705 27.456 126.705 28.404C126.705 30.864 130.857 29.52 130.857 31.344C130.857 32.052 130.329 32.52 129.009 32.52C128.085 32.52 127.233 32.172 126.753 31.764L126.477 32.244C126.969 32.7 127.953 33.048 128.985 33.048ZM135.987 32.184C135.735 32.412 135.387 32.532 135.015 32.532C134.247 32.532 133.851 32.088 133.851 31.284V27.252H135.843V26.736H133.851V25.368H133.251V26.736H132.099V27.252H133.251V31.344C133.251 32.4 133.851 33.048 134.955 33.048C135.423 33.048 135.927 32.904 136.239 32.604L135.987 32.184ZM143.851 32.184C143.599 32.412 143.251 32.532 142.879 32.532C142.111 32.532 141.715 32.088 141.715 31.284V27.252H143.707V26.736H141.715V25.368H141.115V26.736H139.963V27.252H141.115V31.344C141.115 32.4 141.715 33.048 142.819 33.048C143.287 33.048 143.791 32.904 144.103 32.604L143.851 32.184ZM148.836 26.688C147.672 26.688 146.808 27.192 146.376 28.044V24.096H145.776V33H146.376V29.664C146.376 28.176 147.276 27.228 148.752 27.228C150.024 27.228 150.78 27.972 150.78 29.388V33H151.38V29.34C151.38 27.588 150.36 26.688 148.836 26.688ZM159.166 29.844C159.166 27.984 157.894 26.688 156.178 26.688C154.462 26.688 153.178 28.008 153.178 29.868C153.178 31.728 154.51 33.048 156.406 33.048C157.354 33.048 158.218 32.7 158.77 32.028L158.422 31.632C157.942 32.22 157.21 32.508 156.418 32.508C154.918 32.508 153.826 31.5 153.766 30.012H159.154C159.154 29.952 159.166 29.892 159.166 29.844ZM156.178 27.216C157.51 27.216 158.494 28.188 158.578 29.544H153.778C153.874 28.176 154.846 27.216 156.178 27.216ZM164.68 28.104V26.736H164.104V33H164.704V29.736C164.704 28.188 165.532 27.264 166.924 27.264C166.972 27.264 167.02 27.276 167.068 27.276V26.688C165.892 26.688 165.064 27.192 164.68 28.104ZM169.021 25.212C169.297 25.212 169.513 24.996 169.513 24.72C169.513 24.456 169.297 24.24 169.021 24.24C168.745 24.24 168.529 24.468 168.529 24.732C168.529 24.996 168.745 25.212 169.021 25.212ZM168.721 33H169.321V26.736H168.721V33ZM176.914 26.736V28.152C176.41 27.216 175.438 26.688 174.286 26.688C172.51 26.688 171.166 27.936 171.166 29.724C171.166 31.512 172.51 32.772 174.286 32.772C175.414 32.772 176.374 32.256 176.89 31.344V32.4C176.89 34.068 176.11 34.836 174.442 34.836C173.434 34.836 172.534 34.5 171.91 33.924L171.586 34.38C172.222 35.016 173.314 35.376 174.454 35.376C176.47 35.376 177.49 34.428 177.49 32.328V26.736H176.914ZM174.334 32.232C172.858 32.232 171.778 31.2 171.778 29.724C171.778 28.248 172.858 27.228 174.334 27.228C175.822 27.228 176.902 28.248 176.902 29.724C176.902 31.2 175.822 32.232 174.334 32.232ZM183.09 26.688C181.926 26.688 181.062 27.192 180.63 28.044V24.096H180.03V33H180.63V29.664C180.63 28.176 181.53 27.228 183.006 27.228C184.278 27.228 185.034 27.972 185.034 29.388V33H185.634V29.34C185.634 27.588 184.614 26.688 183.09 26.688ZM190.96 32.184C190.708 32.412 190.36 32.532 189.988 32.532C189.22 32.532 188.824 32.088 188.824 31.284V27.252H190.816V26.736H188.824V25.368H188.224V26.736H187.072V27.252H188.224V31.344C188.224 32.4 188.824 33.048 189.928 33.048C190.396 33.048 190.9 32.904 191.212 32.604L190.96 32.184ZM199.111 26.688C197.983 26.688 197.035 27.252 196.543 28.212V26.736H195.967V35.328H196.567V31.572C197.071 32.508 198.007 33.048 199.111 33.048C200.875 33.048 202.207 31.752 202.207 29.868C202.207 27.996 200.875 26.688 199.111 26.688ZM199.075 32.508C197.635 32.508 196.555 31.44 196.555 29.868C196.555 28.296 197.635 27.228 199.075 27.228C200.515 27.228 201.607 28.296 201.607 29.868C201.607 31.44 200.515 32.508 199.075 32.508ZM204.065 33H204.665V24.096H204.065V33ZM209.306 26.688C208.334 26.688 207.422 27.024 206.798 27.576L207.098 28.008C207.614 27.54 208.394 27.216 209.258 27.216C210.482 27.216 211.118 27.84 211.118 29.004V29.508H208.97C207.23 29.508 206.63 30.312 206.63 31.26C206.63 32.328 207.482 33.048 208.886 33.048C209.978 33.048 210.746 32.604 211.142 31.884V33H211.718V29.028C211.718 27.48 210.854 26.688 209.306 26.688ZM208.97 32.556C207.866 32.556 207.23 32.052 207.23 31.236C207.23 30.516 207.686 29.976 208.982 29.976H211.118V31.152C210.758 32.052 210.026 32.556 208.97 32.556ZM216.686 33.048C217.682 33.048 218.546 32.652 219.062 31.896L218.618 31.572C218.162 32.208 217.466 32.508 216.686 32.508C215.21 32.508 214.13 31.452 214.13 29.868C214.13 28.284 215.21 27.228 216.686 27.228C217.466 27.228 218.162 27.528 218.618 28.164L219.062 27.84C218.546 27.072 217.682 26.688 216.686 26.688C214.85 26.688 213.518 27.996 213.518 29.868C213.518 31.728 214.85 33.048 216.686 33.048ZM226.056 29.844C226.056 27.984 224.784 26.688 223.068 26.688C221.352 26.688 220.068 28.008 220.068 29.868C220.068 31.728 221.4 33.048 223.296 33.048C224.244 33.048 225.108 32.7 225.66 32.028L225.312 31.632C224.832 32.22 224.1 32.508 223.308 32.508C221.808 32.508 220.716 31.5 220.656 30.012H226.044C226.044 29.952 226.056 29.892 226.056 29.844ZM223.068 27.216C224.4 27.216 225.384 28.188 225.468 29.544H220.668C220.764 28.176 221.736 27.216 223.068 27.216ZM229.497 33.048C231.093 33.048 231.969 32.352 231.969 31.332C231.969 28.944 227.817 30.276 227.817 28.392C227.817 27.72 228.357 27.216 229.581 27.216C230.253 27.216 230.937 27.396 231.465 27.78L231.741 27.3C231.249 26.928 230.385 26.688 229.593 26.688C228.009 26.688 227.217 27.456 227.217 28.404C227.217 30.864 231.369 29.52 231.369 31.344C231.369 32.052 230.841 32.52 229.521 32.52C228.597 32.52 227.745 32.172 227.265 31.764L226.989 32.244C227.481 32.7 228.465 33.048 229.497 33.048ZM244.525 26.688C243.313 26.688 242.401 27.288 241.993 28.2C241.657 27.204 240.829 26.688 239.701 26.688C238.561 26.688 237.709 27.204 237.301 28.08V26.736H236.725V33H237.325V29.664C237.325 28.176 238.201 27.228 239.617 27.228C240.841 27.228 241.573 27.972 241.573 29.388V33H242.173V29.664C242.173 28.176 243.049 27.228 244.465 27.228C245.689 27.228 246.421 27.972 246.421 29.388V33H247.021V29.34C247.021 27.588 246.037 26.688 244.525 26.688ZM251.611 26.688C250.639 26.688 249.727 27.024 249.103 27.576L249.403 28.008C249.919 27.54 250.699 27.216 251.563 27.216C252.787 27.216 253.423 27.84 253.423 29.004V29.508H251.275C249.535 29.508 248.935 30.312 248.935 31.26C248.935 32.328 249.787 33.048 251.191 33.048C252.283 33.048 253.051 32.604 253.447 31.884V33H254.023V29.028C254.023 27.48 253.159 26.688 251.611 26.688ZM251.275 32.556C250.171 32.556 249.535 32.052 249.535 31.236C249.535 30.516 249.991 29.976 251.287 29.976H253.423V31.152C253.063 32.052 252.331 32.556 251.275 32.556ZM261.391 33H262.135L259.171 29.268L261.871 26.736H261.103L257.095 30.396V24.096H256.495V33H257.095V31.14L258.727 29.652L261.391 33ZM268.596 29.844C268.596 27.984 267.324 26.688 265.608 26.688C263.892 26.688 262.608 28.008 262.608 29.868C262.608 31.728 263.94 33.048 265.836 33.048C266.784 33.048 267.648 32.7 268.2 32.028L267.852 31.632C267.372 32.22 266.64 32.508 265.848 32.508C264.348 32.508 263.256 31.5 263.196 30.012H268.584C268.584 29.952 268.596 29.892 268.596 29.844ZM265.608 27.216C266.94 27.216 267.924 28.188 268.008 29.544H263.208C263.304 28.176 264.276 27.216 265.608 27.216ZM276.39 32.184C276.138 32.412 275.79 32.532 275.418 32.532C274.65 32.532 274.254 32.088 274.254 31.284V27.252H276.246V26.736H274.254V25.368H273.654V26.736H272.502V27.252H273.654V31.344C273.654 32.4 274.254 33.048 275.358 33.048C275.826 33.048 276.33 32.904 276.642 32.604L276.39 32.184ZM281.375 26.688C280.211 26.688 279.347 27.192 278.915 28.044V24.096H278.315V33H278.915V29.664C278.915 28.176 279.815 27.228 281.291 27.228C282.563 27.228 283.319 27.972 283.319 29.388V33H283.919V29.34C283.919 27.588 282.899 26.688 281.375 26.688ZM291.705 29.844C291.705 27.984 290.433 26.688 288.717 26.688C287.001 26.688 285.717 28.008 285.717 29.868C285.717 31.728 287.049 33.048 288.945 33.048C289.893 33.048 290.757 32.7 291.309 32.028L290.961 31.632C290.481 32.22 289.749 32.508 288.957 32.508C287.457 32.508 286.365 31.5 286.305 30.012H291.693C291.693 29.952 291.705 29.892 291.705 29.844ZM288.717 27.216C290.049 27.216 291.033 28.188 291.117 29.544H286.317C286.413 28.176 287.385 27.216 288.717 27.216ZM299.787 26.688C298.683 26.688 297.747 27.228 297.243 28.164V24.096H296.643V33H297.219V31.524C297.711 32.484 298.659 33.048 299.787 33.048C301.551 33.048 302.883 31.74 302.883 29.868C302.883 27.984 301.551 26.688 299.787 26.688ZM299.751 32.508C298.311 32.508 297.231 31.44 297.231 29.868C297.231 28.296 298.311 27.228 299.751 27.228C301.191 27.228 302.283 28.296 302.283 29.868C302.283 31.44 301.191 32.508 299.751 32.508ZM305.041 25.212C305.317 25.212 305.533 24.996 305.533 24.72C305.533 24.456 305.317 24.24 305.041 24.24C304.765 24.24 304.549 24.468 304.549 24.732C304.549 24.996 304.765 25.212 305.041 25.212ZM304.741 33H305.341V26.736H304.741V33ZM312.766 33H313.51L310.546 29.268L313.246 26.736H312.478L308.47 30.396V24.096H307.87V33H308.47V31.14L310.102 29.652L312.766 33ZM319.971 29.844C319.971 27.984 318.699 26.688 316.983 26.688C315.267 26.688 313.983 28.008 313.983 29.868C313.983 31.728 315.315 33.048 317.211 33.048C318.159 33.048 319.023 32.7 319.575 32.028L319.227 31.632C318.747 32.22 318.015 32.508 317.223 32.508C315.723 32.508 314.631 31.5 314.571 30.012H319.959C319.959 29.952 319.971 29.892 319.971 29.844ZM316.983 27.216C318.315 27.216 319.299 28.188 319.383 29.544H314.583C314.679 28.176 315.651 27.216 316.983 27.216ZM326.493 33.048C328.089 33.048 328.965 32.352 328.965 31.332C328.965 28.944 324.813 30.276 324.813 28.392C324.813 27.72 325.353 27.216 326.577 27.216C327.249 27.216 327.933 27.396 328.461 27.78L328.737 27.3C328.245 26.928 327.381 26.688 326.589 26.688C325.005 26.688 324.213 27.456 324.213 28.404C324.213 30.864 328.365 29.52 328.365 31.344C328.365 32.052 327.837 32.52 326.517 32.52C325.593 32.52 324.741 32.172 324.261 31.764L323.985 32.244C324.477 32.7 325.461 33.048 326.493 33.048ZM333.495 32.184C333.243 32.412 332.895 32.532 332.523 32.532C331.755 32.532 331.359 32.088 331.359 31.284V27.252H333.351V26.736H331.359V25.368H330.759V26.736H329.607V27.252H330.759V31.344C330.759 32.4 331.359 33.048 332.463 33.048C332.931 33.048 333.435 32.904 333.747 32.604L333.495 32.184ZM337.532 26.688C336.56 26.688 335.648 27.024 335.024 27.576L335.324 28.008C335.84 27.54 336.62 27.216 337.484 27.216C338.708 27.216 339.344 27.84 339.344 29.004V29.508H337.196C335.456 29.508 334.856 30.312 334.856 31.26C334.856 32.328 335.708 33.048 337.112 33.048C338.204 33.048 338.972 32.604 339.368 31.884V33H339.944V29.028C339.944 27.48 339.08 26.688 337.532 26.688ZM337.196 32.556C336.092 32.556 335.456 32.052 335.456 31.236C335.456 30.516 335.912 29.976 337.208 29.976H339.344V31.152C338.984 32.052 338.252 32.556 337.196 32.556ZM345.477 26.688C344.289 26.688 343.413 27.216 342.993 28.092V26.736H342.417V33H343.017V29.664C343.017 28.176 343.917 27.228 345.393 27.228C346.665 27.228 347.421 27.972 347.421 29.388V33H348.021V29.34C348.021 27.588 347.001 26.688 345.477 26.688ZM355.47 24.096V28.188C354.966 27.24 354.03 26.688 352.914 26.688C351.15 26.688 349.818 27.984 349.818 29.868C349.818 31.74 351.15 33.048 352.914 33.048C354.042 33.048 354.99 32.496 355.482 31.524V33H356.07V24.096H355.47ZM352.95 32.508C351.51 32.508 350.43 31.44 350.43 29.868C350.43 28.296 351.51 27.228 352.95 27.228C354.39 27.228 355.47 28.296 355.47 29.868C355.47 31.44 354.39 32.508 352.95 32.508ZM364.13 33.048C365.93 33.048 367.262 31.728 367.262 29.868C367.262 28.008 365.93 26.688 364.13 26.688C362.33 26.688 360.998 28.008 360.998 29.868C360.998 31.728 362.33 33.048 364.13 33.048ZM364.13 32.508C362.69 32.508 361.61 31.44 361.61 29.868C361.61 28.296 362.69 27.228 364.13 27.228C365.57 27.228 366.65 28.296 366.65 29.868C366.65 31.44 365.57 32.508 364.13 32.508ZM374.008 26.736V30.072C374.008 31.56 373.132 32.508 371.716 32.508C370.408 32.508 369.652 31.764 369.652 30.348V26.736H369.052V30.396C369.052 32.148 370.072 33.048 371.668 33.048C372.772 33.048 373.624 32.532 374.032 31.656V33H374.608V26.736H374.008ZM380.007 32.184C379.755 32.412 379.407 32.532 379.035 32.532C378.267 32.532 377.871 32.088 377.871 31.284V27.252H379.863V26.736H377.871V25.368H377.271V26.736H376.119V27.252H377.271V31.344C377.271 32.4 377.871 33.048 378.975 33.048C379.443 33.048 379.947 32.904 380.259 32.604L380.007 32.184ZM381.977 32.028C381.689 32.028 381.473 32.244 381.473 32.532C381.473 32.784 381.629 32.964 381.869 33.024L381.473 34.716H381.905L382.373 33.084C382.445 32.832 382.481 32.712 382.481 32.532C382.481 32.268 382.277 32.028 381.977 32.028ZM9.672 50.736L7.56 56.316L5.436 50.736H4.92L2.784 56.328L0.696 50.736H0.12L2.496 57H3.048L5.172 51.564L7.284 57H7.848L10.224 50.736H9.672ZM14.6797 50.688C13.5157 50.688 12.6517 51.192 12.2197 52.044V48.096H11.6197V57H12.2197V53.664C12.2197 52.176 13.1197 51.228 14.5957 51.228C15.8677 51.228 16.6237 51.972 16.6237 53.388V57H17.2237V53.34C17.2237 51.588 16.2037 50.688 14.6797 50.688ZM19.9939 49.212C20.2699 49.212 20.4859 48.996 20.4859 48.72C20.4859 48.456 20.2699 48.24 19.9939 48.24C19.7179 48.24 19.5019 48.468 19.5019 48.732C19.5019 48.996 19.7179 49.212 19.9939 49.212ZM19.6939 57H20.2939V50.736H19.6939V57ZM22.8228 57H23.4228V48.096H22.8228V57ZM31.2557 53.844C31.2557 51.984 29.9837 50.688 28.2677 50.688C26.5517 50.688 25.2677 52.008 25.2677 53.868C25.2677 55.728 26.5997 57.048 28.4957 57.048C29.4437 57.048 30.3077 56.7 30.8597 56.028L30.5117 55.632C30.0317 56.22 29.2997 56.508 28.5077 56.508C27.0077 56.508 25.9157 55.5 25.8557 54.012H31.2437C31.2437 53.952 31.2557 53.892 31.2557 53.844ZM28.2677 51.216C29.5997 51.216 30.5837 52.188 30.6677 53.544H25.8677C25.9637 52.176 26.9357 51.216 28.2677 51.216ZM39.0499 56.184C38.7979 56.412 38.4499 56.532 38.0779 56.532C37.3099 56.532 36.9139 56.088 36.9139 55.284V51.252H38.9059V50.736H36.9139V49.368H36.3139V50.736H35.1619V51.252H36.3139V55.344C36.3139 56.4 36.9139 57.048 38.0179 57.048C38.4859 57.048 38.9899 56.904 39.3019 56.604L39.0499 56.184ZM44.0351 50.688C42.8711 50.688 42.0071 51.192 41.5751 52.044V48.096H40.9751V57H41.5751V53.664C41.5751 52.176 42.4751 51.228 43.9511 51.228C45.2231 51.228 45.9791 51.972 45.9791 53.388V57H46.5791V53.34C46.5791 51.588 45.5591 50.688 44.0351 50.688ZM54.3651 53.844C54.3651 51.984 53.0931 50.688 51.3771 50.688C49.6611 50.688 48.3771 52.008 48.3771 53.868C48.3771 55.728 49.7091 57.048 51.6051 57.048C52.5531 57.048 53.4171 56.7 53.9691 56.028L53.6211 55.632C53.1411 56.22 52.4091 56.508 51.6171 56.508C50.1171 56.508 49.0251 55.5 48.9651 54.012H54.3531C54.3531 53.952 54.3651 53.892 54.3651 53.844ZM51.3771 51.216C52.7091 51.216 53.6931 52.188 53.7771 53.544H48.9771C49.0731 52.176 50.0451 51.216 51.3771 51.216ZM62.4473 50.688C61.3433 50.688 60.4073 51.228 59.9033 52.164V48.096H59.3033V57H59.8793V55.524C60.3713 56.484 61.3193 57.048 62.4473 57.048C64.2113 57.048 65.5433 55.74 65.5433 53.868C65.5433 51.984 64.2113 50.688 62.4473 50.688ZM62.4113 56.508C60.9713 56.508 59.8913 55.44 59.8913 53.868C59.8913 52.296 60.9713 51.228 62.4113 51.228C63.8513 51.228 64.9433 52.296 64.9433 53.868C64.9433 55.44 63.8513 56.508 62.4113 56.508ZM67.4009 57H68.0009V48.096H67.4009V57ZM72.6418 50.688C71.6698 50.688 70.7578 51.024 70.1338 51.576L70.4338 52.008C70.9498 51.54 71.7298 51.216 72.5938 51.216C73.8178 51.216 74.4538 51.84 74.4538 53.004V53.508H72.3058C70.5658 53.508 69.9658 54.312 69.9658 55.26C69.9658 56.328 70.8178 57.048 72.2218 57.048C73.3138 57.048 74.0818 56.604 74.4778 55.884V57H75.0538V53.028C75.0538 51.48 74.1898 50.688 72.6418 50.688ZM72.3058 56.556C71.2018 56.556 70.5658 56.052 70.5658 55.236C70.5658 54.516 71.0218 53.976 72.3178 53.976H74.4538V55.152C74.0938 56.052 73.3618 56.556 72.3058 56.556ZM80.0216 57.048C81.0176 57.048 81.8816 56.652 82.3976 55.896L81.9536 55.572C81.4976 56.208 80.8016 56.508 80.0216 56.508C78.5456 56.508 77.4656 55.452 77.4656 53.868C77.4656 52.284 78.5456 51.228 80.0216 51.228C80.8016 51.228 81.4976 51.528 81.9536 52.164L82.3976 51.84C81.8816 51.072 81.0176 50.688 80.0216 50.688C78.1856 50.688 76.8536 51.996 76.8536 53.868C76.8536 55.728 78.1856 57.048 80.0216 57.048ZM88.9844 57H89.7284L86.7644 53.268L89.4644 50.736H88.6964L84.6884 54.396V48.096H84.0884V57H84.6884V55.14L86.3204 53.652L88.9844 57ZM90.3573 54.048H93.4413V53.508H90.3573V54.048ZM98.0208 57.048C99.8208 57.048 101.153 55.728 101.153 53.868C101.153 52.008 99.8208 50.688 98.0208 50.688C96.2208 50.688 94.8888 52.008 94.8888 53.868C94.8888 55.728 96.2208 57.048 98.0208 57.048ZM98.0208 56.508C96.5808 56.508 95.5008 55.44 95.5008 53.868C95.5008 52.296 96.5808 51.228 98.0208 51.228C99.4608 51.228 100.541 52.296 100.541 53.868C100.541 55.44 99.4608 56.508 98.0208 56.508ZM106.074 50.688C104.886 50.688 104.01 51.216 103.59 52.092V50.736H103.014V57H103.614V53.664C103.614 52.176 104.514 51.228 105.99 51.228C107.262 51.228 108.018 51.972 108.018 53.388V57H108.618V53.34C108.618 51.588 107.598 50.688 106.074 50.688ZM110.56 54.048H113.644V53.508H110.56V54.048ZM118.803 50.688C117.699 50.688 116.763 51.228 116.259 52.164V48.096H115.659V57H116.235V55.524C116.727 56.484 117.675 57.048 118.803 57.048C120.567 57.048 121.899 55.74 121.899 53.868C121.899 51.984 120.567 50.688 118.803 50.688ZM118.767 56.508C117.327 56.508 116.247 55.44 116.247 53.868C116.247 52.296 117.327 51.228 118.767 51.228C120.207 51.228 121.299 52.296 121.299 53.868C121.299 55.44 120.207 56.508 118.767 56.508ZM123.756 57H124.356V48.096H123.756V57ZM128.997 50.688C128.025 50.688 127.113 51.024 126.489 51.576L126.789 52.008C127.305 51.54 128.085 51.216 128.949 51.216C130.173 51.216 130.809 51.84 130.809 53.004V53.508H128.661C126.921 53.508 126.321 54.312 126.321 55.26C126.321 56.328 127.173 57.048 128.577 57.048C129.669 57.048 130.437 56.604 130.833 55.884V57H131.409V53.028C131.409 51.48 130.545 50.688 128.997 50.688ZM128.661 56.556C127.557 56.556 126.921 56.052 126.921 55.236C126.921 54.516 127.377 53.976 128.673 53.976H130.809V55.152C130.449 56.052 129.717 56.556 128.661 56.556ZM136.377 57.048C137.373 57.048 138.237 56.652 138.753 55.896L138.309 55.572C137.853 56.208 137.157 56.508 136.377 56.508C134.901 56.508 133.821 55.452 133.821 53.868C133.821 52.284 134.901 51.228 136.377 51.228C137.157 51.228 137.853 51.528 138.309 52.164L138.753 51.84C138.237 51.072 137.373 50.688 136.377 50.688C134.541 50.688 133.209 51.996 133.209 53.868C133.209 55.728 134.541 57.048 136.377 57.048ZM145.34 57H146.084L143.12 53.268L145.82 50.736H145.052L141.044 54.396V48.096H140.444V57H141.044V55.14L142.676 53.652L145.34 57ZM152.165 57.048C153.761 57.048 154.637 56.352 154.637 55.332C154.637 52.944 150.485 54.276 150.485 52.392C150.485 51.72 151.025 51.216 152.249 51.216C152.921 51.216 153.605 51.396 154.133 51.78L154.409 51.3C153.917 50.928 153.053 50.688 152.261 50.688C150.677 50.688 149.885 51.456 149.885 52.404C149.885 54.864 154.037 53.52 154.037 55.344C154.037 56.052 153.509 56.52 152.189 56.52C151.265 56.52 150.413 56.172 149.933 55.764L149.657 56.244C150.149 56.7 151.133 57.048 152.165 57.048ZM158.423 50.688C157.451 50.688 156.539 51.024 155.915 51.576L156.215 52.008C156.731 51.54 157.511 51.216 158.375 51.216C159.599 51.216 160.235 51.84 160.235 53.004V53.508H158.087C156.347 53.508 155.747 54.312 155.747 55.26C155.747 56.328 156.599 57.048 158.003 57.048C159.095 57.048 159.863 56.604 160.259 55.884V57H160.835V53.028C160.835 51.48 159.971 50.688 158.423 50.688ZM158.087 56.556C156.983 56.556 156.347 56.052 156.347 55.236C156.347 54.516 156.803 53.976 158.099 53.976H160.235V55.152C159.875 56.052 159.143 56.556 158.087 56.556ZM166.163 56.184C165.911 56.412 165.563 56.532 165.191 56.532C164.423 56.532 164.027 56.088 164.027 55.284V51.252H166.019V50.736H164.027V49.368H163.427V50.736H162.275V51.252H163.427V55.344C163.427 56.4 164.027 57.048 165.131 57.048C165.599 57.048 166.103 56.904 166.415 56.604L166.163 56.184ZM168.388 49.212C168.664 49.212 168.88 48.996 168.88 48.72C168.88 48.456 168.664 48.24 168.388 48.24C168.112 48.24 167.896 48.468 167.896 48.732C167.896 48.996 168.112 49.212 168.388 49.212ZM168.088 57H168.688V50.736H168.088V57ZM174.277 50.688C173.089 50.688 172.213 51.216 171.793 52.092V50.736H171.217V57H171.817V53.664C171.817 52.176 172.717 51.228 174.193 51.228C175.465 51.228 176.221 51.972 176.221 53.388V57H176.821V53.34C176.821 51.588 175.801 50.688 174.277 50.688ZM185.23 56.184C184.978 56.412 184.63 56.532 184.258 56.532C183.49 56.532 183.094 56.088 183.094 55.284V51.252H185.086V50.736H183.094V49.368H182.494V50.736H181.342V51.252H182.494V55.344C182.494 56.4 183.094 57.048 184.198 57.048C184.666 57.048 185.17 56.904 185.482 56.604L185.23 56.184ZM192.236 53.844C192.236 51.984 190.964 50.688 189.248 50.688C187.532 50.688 186.248 52.008 186.248 53.868C186.248 55.728 187.58 57.048 189.476 57.048C190.424 57.048 191.288 56.7 191.84 56.028L191.492 55.632C191.012 56.22 190.28 56.508 189.488 56.508C187.988 56.508 186.896 55.5 186.836 54.012H192.224C192.224 53.952 192.236 53.892 192.236 53.844ZM189.248 51.216C190.58 51.216 191.564 52.188 191.648 53.544H186.848C186.944 52.176 187.916 51.216 189.248 51.216ZM198.609 57L196.089 53.772L198.441 50.736H197.769L195.753 53.34L193.737 50.736H193.053L195.405 53.772L192.921 57H193.605L195.753 54.204L197.901 57H198.609ZM202.995 56.184C202.743 56.412 202.395 56.532 202.023 56.532C201.255 56.532 200.859 56.088 200.859 55.284V51.252H202.851V50.736H200.859V49.368H200.259V50.736H199.107V51.252H200.259V55.344C200.259 56.4 200.859 57.048 201.963 57.048C202.431 57.048 202.935 56.904 203.247 56.604L202.995 56.184ZM210.45 57.048C212.25 57.048 213.582 55.728 213.582 53.868C213.582 52.008 212.25 50.688 210.45 50.688C208.65 50.688 207.318 52.008 207.318 53.868C207.318 55.728 208.65 57.048 210.45 57.048ZM210.45 56.508C209.01 56.508 207.93 55.44 207.93 53.868C207.93 52.296 209.01 51.228 210.45 51.228C211.89 51.228 212.97 52.296 212.97 53.868C212.97 55.44 211.89 56.508 210.45 56.508ZM218.504 50.688C217.316 50.688 216.44 51.216 216.02 52.092V50.736H215.444V57H216.044V53.664C216.044 52.176 216.944 51.228 218.42 51.228C219.692 51.228 220.448 51.972 220.448 53.388V57H221.048V53.34C221.048 51.588 220.028 50.688 218.504 50.688ZM229.456 56.184C229.204 56.412 228.856 56.532 228.484 56.532C227.716 56.532 227.32 56.088 227.32 55.284V51.252H229.312V50.736H227.32V49.368H226.72V50.736H225.568V51.252H226.72V55.344C226.72 56.4 227.32 57.048 228.424 57.048C228.892 57.048 229.396 56.904 229.708 56.604L229.456 56.184ZM234.441 50.688C233.277 50.688 232.413 51.192 231.981 52.044V48.096H231.381V57H231.981V53.664C231.981 52.176 232.881 51.228 234.357 51.228C235.629 51.228 236.385 51.972 236.385 53.388V57H236.985V53.34C236.985 51.588 235.965 50.688 234.441 50.688ZM244.771 53.844C244.771 51.984 243.499 50.688 241.783 50.688C240.067 50.688 238.783 52.008 238.783 53.868C238.783 55.728 240.115 57.048 242.011 57.048C242.959 57.048 243.823 56.7 244.375 56.028L244.027 55.632C243.547 56.22 242.815 56.508 242.023 56.508C240.523 56.508 239.431 55.5 239.371 54.012H244.759C244.759 53.952 244.771 53.892 244.771 53.844ZM241.783 51.216C243.115 51.216 244.099 52.188 244.183 53.544H239.383C239.479 52.176 240.451 51.216 241.783 51.216ZM252.854 50.688C251.75 50.688 250.814 51.228 250.31 52.164V48.096H249.71V57H250.286V55.524C250.778 56.484 251.726 57.048 252.854 57.048C254.618 57.048 255.95 55.74 255.95 53.868C255.95 51.984 254.618 50.688 252.854 50.688ZM252.818 56.508C251.378 56.508 250.298 55.44 250.298 53.868C250.298 52.296 251.378 51.228 252.818 51.228C254.258 51.228 255.35 52.296 255.35 53.868C255.35 55.44 254.258 56.508 252.818 56.508ZM258.107 49.212C258.383 49.212 258.599 48.996 258.599 48.72C258.599 48.456 258.383 48.24 258.107 48.24C257.831 48.24 257.615 48.468 257.615 48.732C257.615 48.996 257.831 49.212 258.107 49.212ZM257.807 57H258.407V50.736H257.807V57ZM265.832 57H266.576L263.612 53.268L266.312 50.736H265.544L261.536 54.396V48.096H260.936V57H261.536V55.14L263.168 53.652L265.832 57ZM273.037 53.844C273.037 51.984 271.765 50.688 270.049 50.688C268.333 50.688 267.049 52.008 267.049 53.868C267.049 55.728 268.381 57.048 270.277 57.048C271.225 57.048 272.089 56.7 272.641 56.028L272.293 55.632C271.813 56.22 271.081 56.508 270.289 56.508C268.789 56.508 267.697 55.5 267.637 54.012H273.025C273.025 53.952 273.037 53.892 273.037 53.844ZM270.049 51.216C271.381 51.216 272.365 52.188 272.449 53.544H267.649C267.745 52.176 268.717 51.216 270.049 51.216ZM274.774 48.048C274.486 48.048 274.27 48.264 274.27 48.552C274.27 48.804 274.426 48.984 274.666 49.044L274.27 50.736H274.702L275.17 49.104C275.242 48.852 275.278 48.732 275.278 48.552C275.278 48.288 275.074 48.048 274.774 48.048ZM278.645 57.048C280.241 57.048 281.117 56.352 281.117 55.332C281.117 52.944 276.965 54.276 276.965 52.392C276.965 51.72 277.505 51.216 278.729 51.216C279.401 51.216 280.085 51.396 280.613 51.78L280.889 51.3C280.397 50.928 279.533 50.688 278.741 50.688C277.157 50.688 276.365 51.456 276.365 52.404C276.365 54.864 280.517 53.52 280.517 55.344C280.517 56.052 279.989 56.52 278.669 56.52C277.745 56.52 276.893 56.172 276.413 55.764L276.137 56.244C276.629 56.7 277.613 57.048 278.645 57.048ZM287.758 48.564C288.13 48.564 288.478 48.684 288.73 48.912L288.97 48.456C288.67 48.18 288.19 48.048 287.734 48.048C286.618 48.048 285.994 48.732 285.994 49.776V50.736H284.842V51.252H285.994V57H286.594V51.252H288.586V50.736H286.582V49.824C286.582 48.996 286.978 48.564 287.758 48.564ZM292.154 57.048C293.954 57.048 295.286 55.728 295.286 53.868C295.286 52.008 293.954 50.688 292.154 50.688C290.354 50.688 289.022 52.008 289.022 53.868C289.022 55.728 290.354 57.048 292.154 57.048ZM292.154 56.508C290.714 56.508 289.634 55.44 289.634 53.868C289.634 52.296 290.714 51.228 292.154 51.228C293.594 51.228 294.674 52.296 294.674 53.868C294.674 55.44 293.594 56.508 292.154 56.508ZM297.723 52.104V50.736H297.147V57H297.747V53.736C297.747 52.188 298.575 51.264 299.967 51.264C300.015 51.264 300.063 51.276 300.111 51.276V50.688C298.935 50.688 298.107 51.192 297.723 52.104ZM306.66 57H307.404L304.44 53.268L307.14 50.736H306.372L302.364 54.396V48.096H301.764V57H302.364V55.14L303.996 53.652L306.66 57ZM308.033 54.048H311.117V53.508H308.033V54.048ZM318.313 50.736V52.152C317.809 51.216 316.837 50.688 315.685 50.688C313.909 50.688 312.565 51.936 312.565 53.724C312.565 55.512 313.909 56.772 315.685 56.772C316.813 56.772 317.773 56.256 318.289 55.344V56.4C318.289 58.068 317.509 58.836 315.841 58.836C314.833 58.836 313.933 58.5 313.309 57.924L312.985 58.38C313.621 59.016 314.713 59.376 315.853 59.376C317.869 59.376 318.889 58.428 318.889 56.328V50.736H318.313ZM315.733 56.232C314.257 56.232 313.177 55.2 313.177 53.724C313.177 52.248 314.257 51.228 315.733 51.228C317.221 51.228 318.301 52.248 318.301 53.724C318.301 55.2 317.221 56.232 315.733 56.232ZM326.312 50.736V54.072C326.312 55.56 325.436 56.508 324.02 56.508C322.712 56.508 321.956 55.764 321.956 54.348V50.736H321.356V54.396C321.356 56.148 322.376 57.048 323.972 57.048C325.076 57.048 325.928 56.532 326.336 55.656V57H326.912V50.736H326.312ZM331.568 50.688C330.596 50.688 329.684 51.024 329.06 51.576L329.36 52.008C329.876 51.54 330.656 51.216 331.52 51.216C332.744 51.216 333.38 51.84 333.38 53.004V53.508H331.232C329.492 53.508 328.892 54.312 328.892 55.26C328.892 56.328 329.744 57.048 331.148 57.048C332.24 57.048 333.008 56.604 333.404 55.884V57H333.98V53.028C333.98 51.48 333.116 50.688 331.568 50.688ZM331.232 56.556C330.128 56.556 329.492 56.052 329.492 55.236C329.492 54.516 329.948 53.976 331.244 53.976H333.38V55.152C333.02 56.052 332.288 56.556 331.232 56.556ZM337.028 52.104V50.736H336.452V57H337.052V53.736C337.052 52.188 337.88 51.264 339.272 51.264C339.32 51.264 339.368 51.276 339.416 51.276V50.688C338.24 50.688 337.412 51.192 337.028 52.104ZM345.978 48.096V52.188C345.474 51.24 344.538 50.688 343.422 50.688C341.658 50.688 340.326 51.984 340.326 53.868C340.326 55.74 341.658 57.048 343.422 57.048C344.55 57.048 345.498 56.496 345.99 55.524V57H346.578V48.096H345.978ZM343.458 56.508C342.018 56.508 340.938 55.44 340.938 53.868C340.938 52.296 342.018 51.228 343.458 51.228C344.898 51.228 345.978 52.296 345.978 53.868C345.978 55.44 344.898 56.508 343.458 56.508ZM350.692 57.048C352.288 57.048 353.164 56.352 353.164 55.332C353.164 52.944 349.012 54.276 349.012 52.392C349.012 51.72 349.552 51.216 350.776 51.216C351.448 51.216 352.132 51.396 352.66 51.78L352.936 51.3C352.444 50.928 351.58 50.688 350.788 50.688C349.204 50.688 348.412 51.456 348.412 52.404C348.412 54.864 352.564 53.52 352.564 55.344C352.564 56.052 352.036 56.52 350.716 56.52C349.792 56.52 348.94 56.172 348.46 55.764L348.184 56.244C348.676 56.7 349.66 57.048 350.692 57.048ZM4.332 74.688C3.168 74.688 2.304 75.192 1.872 76.044V72.096H1.272V81H1.872V77.664C1.872 76.176 2.772 75.228 4.248 75.228C5.52 75.228 6.276 75.972 6.276 77.388V81H6.876V77.34C6.876 75.588 5.856 74.688 4.332 74.688ZM14.6619 77.844C14.6619 75.984 13.3899 74.688 11.6739 74.688C9.95794 74.688 8.67394 76.008 8.67394 77.868C8.67394 79.728 10.0059 81.048 11.9019 81.048C12.8499 81.048 13.7139 80.7 14.2659 80.028L13.9179 79.632C13.4379 80.22 12.7059 80.508 11.9139 80.508C10.4139 80.508 9.32194 79.5 9.26194 78.012H14.6499C14.6499 77.952 14.6619 77.892 14.6619 77.844ZM11.6739 75.216C13.0059 75.216 13.9899 76.188 14.0739 77.544H9.27394C9.36994 76.176 10.3419 75.216 11.6739 75.216ZM16.5181 81H17.1181V72.096H16.5181V81ZM22.791 74.688C21.663 74.688 20.715 75.252 20.223 76.212V74.736H19.647V83.328H20.247V79.572C20.751 80.508 21.687 81.048 22.791 81.048C24.555 81.048 25.887 79.752 25.887 77.868C25.887 75.996 24.555 74.688 22.791 74.688ZM22.755 80.508C21.315 80.508 20.235 79.44 20.235 77.868C20.235 76.296 21.315 75.228 22.755 75.228C24.195 75.228 25.287 76.296 25.287 77.868C25.287 79.44 24.195 80.508 22.755 80.508ZM29.3287 81.048C30.9247 81.048 31.8007 80.352 31.8007 79.332C31.8007 76.944 27.6487 78.276 27.6487 76.392C27.6487 75.72 28.1887 75.216 29.4127 75.216C30.0847 75.216 30.7687 75.396 31.2967 75.78L31.5727 75.3C31.0807 74.928 30.2167 74.688 29.4247 74.688C27.8407 74.688 27.0487 75.456 27.0487 76.404C27.0487 78.864 31.2007 77.52 31.2007 79.344C31.2007 80.052 30.6727 80.52 29.3527 80.52C28.4287 80.52 27.5767 80.172 27.0967 79.764L26.8207 80.244C27.3127 80.7 28.2967 81.048 29.3287 81.048ZM39.6172 74.688C38.4532 74.688 37.5892 75.192 37.1572 76.044V72.096H36.5572V81H37.1572V77.664C37.1572 76.176 38.0572 75.228 39.5332 75.228C40.8052 75.228 41.5612 75.972 41.5612 77.388V81H42.1612V77.34C42.1612 75.588 41.1412 74.688 39.6172 74.688ZM44.9314 73.212C45.2074 73.212 45.4234 72.996 45.4234 72.72C45.4234 72.456 45.2074 72.24 44.9314 72.24C44.6554 72.24 44.4394 72.468 44.4394 72.732C44.4394 72.996 44.6554 73.212 44.9314 73.212ZM44.6314 81H45.2314V74.736H44.6314V81ZM52.8243 74.736V76.152C52.3203 75.216 51.3483 74.688 50.1963 74.688C48.4203 74.688 47.0763 75.936 47.0763 77.724C47.0763 79.512 48.4203 80.772 50.1963 80.772C51.3243 80.772 52.2843 80.256 52.8003 79.344V80.4C52.8003 82.068 52.0203 82.836 50.3523 82.836C49.3443 82.836 48.4443 82.5 47.8203 81.924L47.4963 82.38C48.1323 83.016 49.2243 83.376 50.3643 83.376C52.3803 83.376 53.4003 82.428 53.4003 80.328V74.736H52.8243ZM50.2443 80.232C48.7683 80.232 47.6883 79.2 47.6883 77.724C47.6883 76.248 48.7683 75.228 50.2443 75.228C51.7323 75.228 52.8123 76.248 52.8123 77.724C52.8123 79.2 51.7323 80.232 50.2443 80.232ZM59 74.688C57.836 74.688 56.972 75.192 56.54 76.044V72.096H55.94V81H56.54V77.664C56.54 76.176 57.44 75.228 58.916 75.228C60.188 75.228 60.944 75.972 60.944 77.388V81H61.544V77.34C61.544 75.588 60.524 74.688 59 74.688ZM64.0142 81H64.6142V72.096H64.0142V81ZM67.4431 73.212C67.7191 73.212 67.9351 72.996 67.9351 72.72C67.9351 72.456 67.7191 72.24 67.4431 72.24C67.1671 72.24 66.9511 72.468 66.9511 72.732C66.9511 72.996 67.1671 73.212 67.4431 73.212ZM67.1431 81H67.7431V74.736H67.1431V81ZM75.336 74.736V76.152C74.832 75.216 73.86 74.688 72.708 74.688C70.932 74.688 69.588 75.936 69.588 77.724C69.588 79.512 70.932 80.772 72.708 80.772C73.836 80.772 74.796 80.256 75.312 79.344V80.4C75.312 82.068 74.532 82.836 72.864 82.836C71.856 82.836 70.956 82.5 70.332 81.924L70.008 82.38C70.644 83.016 71.736 83.376 72.876 83.376C74.892 83.376 75.912 82.428 75.912 80.328V74.736H75.336ZM72.756 80.232C71.28 80.232 70.2 79.2 70.2 77.724C70.2 76.248 71.28 75.228 72.756 75.228C74.244 75.228 75.324 76.248 75.324 77.724C75.324 79.2 74.244 80.232 72.756 80.232ZM81.5117 74.688C80.3477 74.688 79.4837 75.192 79.0517 76.044V72.096H78.4517V81H79.0517V77.664C79.0517 76.176 79.9517 75.228 81.4277 75.228C82.6997 75.228 83.4557 75.972 83.4557 77.388V81H84.0557V77.34C84.0557 75.588 83.0357 74.688 81.5117 74.688ZM89.3819 80.184C89.1299 80.412 88.7819 80.532 88.4099 80.532C87.6419 80.532 87.2459 80.088 87.2459 79.284V75.252H89.2379V74.736H87.2459V73.368H86.6459V74.736H85.4939V75.252H86.6459V79.344C86.6459 80.4 87.2459 81.048 88.3499 81.048C88.8179 81.048 89.3219 80.904 89.6339 80.604L89.3819 80.184ZM97.2452 80.184C96.9932 80.412 96.6452 80.532 96.2732 80.532C95.5052 80.532 95.1092 80.088 95.1092 79.284V75.252H97.1012V74.736H95.1092V73.368H94.5092V74.736H93.3572V75.252H94.5092V79.344C94.5092 80.4 95.1092 81.048 96.2132 81.048C96.6812 81.048 97.1852 80.904 97.4972 80.604L97.2452 80.184ZM102.23 74.688C101.066 74.688 100.202 75.192 99.7704 76.044V72.096H99.1704V81H99.7704V77.664C99.7704 76.176 100.67 75.228 102.146 75.228C103.418 75.228 104.174 75.972 104.174 77.388V81H104.774V77.34C104.774 75.588 103.754 74.688 102.23 74.688ZM112.56 77.844C112.56 75.984 111.288 74.688 109.572 74.688C107.856 74.688 106.572 76.008 106.572 77.868C106.572 79.728 107.904 81.048 109.8 81.048C110.748 81.048 111.612 80.7 112.164 80.028L111.816 79.632C111.336 80.22 110.604 80.508 109.812 80.508C108.312 80.508 107.22 79.5 107.16 78.012H112.548C112.548 77.952 112.56 77.892 112.56 77.844ZM109.572 75.216C110.904 75.216 111.888 76.188 111.972 77.544H107.172C107.268 76.176 108.24 75.216 109.572 75.216ZM119.983 81.048C120.979 81.048 121.843 80.652 122.359 79.896L121.915 79.572C121.459 80.208 120.763 80.508 119.983 80.508C118.507 80.508 117.427 79.452 117.427 77.868C117.427 76.284 118.507 75.228 119.983 75.228C120.763 75.228 121.459 75.528 121.915 76.164L122.359 75.84C121.843 75.072 120.979 74.688 119.983 74.688C118.147 74.688 116.815 75.996 116.815 77.868C116.815 79.728 118.147 81.048 119.983 81.048ZM126.497 81.048C128.297 81.048 129.629 79.728 129.629 77.868C129.629 76.008 128.297 74.688 126.497 74.688C124.697 74.688 123.365 76.008 123.365 77.868C123.365 79.728 124.697 81.048 126.497 81.048ZM126.497 80.508C125.057 80.508 123.977 79.44 123.977 77.868C123.977 76.296 125.057 75.228 126.497 75.228C127.937 75.228 129.017 76.296 129.017 77.868C129.017 79.44 127.937 80.508 126.497 80.508ZM139.291 74.688C138.079 74.688 137.167 75.288 136.759 76.2C136.423 75.204 135.595 74.688 134.467 74.688C133.327 74.688 132.475 75.204 132.067 76.08V74.736H131.491V81H132.091V77.664C132.091 76.176 132.967 75.228 134.383 75.228C135.607 75.228 136.339 75.972 136.339 77.388V81H136.939V77.664C136.939 76.176 137.815 75.228 139.231 75.228C140.455 75.228 141.187 75.972 141.187 77.388V81H141.787V77.34C141.787 75.588 140.803 74.688 139.291 74.688ZM147.408 74.688C146.28 74.688 145.332 75.252 144.84 76.212V74.736H144.264V83.328H144.864V79.572C145.368 80.508 146.304 81.048 147.408 81.048C149.172 81.048 150.504 79.752 150.504 77.868C150.504 75.996 149.172 74.688 147.408 74.688ZM147.372 80.508C145.932 80.508 144.852 79.44 144.852 77.868C144.852 76.296 145.932 75.228 147.372 75.228C148.812 75.228 149.904 76.296 149.904 77.868C149.904 79.44 148.812 80.508 147.372 80.508ZM154.45 74.688C153.478 74.688 152.566 75.024 151.942 75.576L152.242 76.008C152.758 75.54 153.538 75.216 154.402 75.216C155.626 75.216 156.262 75.84 156.262 77.004V77.508H154.114C152.374 77.508 151.774 78.312 151.774 79.26C151.774 80.328 152.626 81.048 154.03 81.048C155.122 81.048 155.89 80.604 156.286 79.884V81H156.862V77.028C156.862 75.48 155.998 74.688 154.45 74.688ZM154.114 80.556C153.01 80.556 152.374 80.052 152.374 79.236C152.374 78.516 152.83 77.976 154.126 77.976H156.262V79.152C155.902 80.052 155.17 80.556 154.114 80.556ZM162.395 74.688C161.207 74.688 160.331 75.216 159.911 76.092V74.736H159.335V81H159.935V77.664C159.935 76.176 160.835 75.228 162.311 75.228C163.583 75.228 164.339 75.972 164.339 77.388V81H164.939V77.34C164.939 75.588 163.919 74.688 162.395 74.688ZM171.708 74.736L169.2 80.34L166.692 74.736H166.056L168.876 80.976L168.54 81.732C168.156 82.584 167.736 82.848 167.16 82.848C166.692 82.848 166.32 82.692 165.996 82.356L165.696 82.812C166.056 83.184 166.584 83.376 167.148 83.376C167.976 83.376 168.6 83.004 169.104 81.852L172.32 74.736H171.708ZM173.782 72.048C173.494 72.048 173.278 72.264 173.278 72.552C173.278 72.804 173.434 72.984 173.674 73.044L173.278 74.736H173.71L174.178 73.104C174.25 72.852 174.286 72.732 174.286 72.552C174.286 72.288 174.082 72.048 173.782 72.048ZM177.653 81.048C179.249 81.048 180.125 80.352 180.125 79.332C180.125 76.944 175.973 78.276 175.973 76.392C175.973 75.72 176.513 75.216 177.737 75.216C178.409 75.216 179.093 75.396 179.621 75.78L179.897 75.3C179.405 74.928 178.541 74.688 177.749 74.688C176.165 74.688 175.373 75.456 175.373 76.404C175.373 78.864 179.525 77.52 179.525 79.344C179.525 80.052 178.997 80.52 177.677 80.52C176.753 80.52 175.901 80.172 175.421 79.764L175.145 80.244C175.637 80.7 176.621 81.048 177.653 81.048ZM188.025 74.688C186.921 74.688 185.985 75.228 185.481 76.164V72.096H184.881V81H185.457V79.524C185.949 80.484 186.897 81.048 188.025 81.048C189.789 81.048 191.121 79.74 191.121 77.868C191.121 75.984 189.789 74.688 188.025 74.688ZM187.989 80.508C186.549 80.508 185.469 79.44 185.469 77.868C185.469 76.296 186.549 75.228 187.989 75.228C189.429 75.228 190.521 76.296 190.521 77.868C190.521 79.44 189.429 80.508 187.989 80.508ZM193.555 76.104V74.736H192.979V81H193.579V77.736C193.579 76.188 194.407 75.264 195.799 75.264C195.847 75.264 195.895 75.276 195.943 75.276V74.688C194.767 74.688 193.939 75.192 193.555 76.104ZM199.708 74.688C198.736 74.688 197.824 75.024 197.2 75.576L197.5 76.008C198.016 75.54 198.796 75.216 199.66 75.216C200.884 75.216 201.52 75.84 201.52 77.004V77.508H199.372C197.632 77.508 197.032 78.312 197.032 79.26C197.032 80.328 197.884 81.048 199.288 81.048C200.38 81.048 201.148 80.604 201.544 79.884V81H202.12V77.028C202.12 75.48 201.256 74.688 199.708 74.688ZM199.372 80.556C198.268 80.556 197.632 80.052 197.632 79.236C197.632 78.516 198.088 77.976 199.384 77.976H201.52V79.152C201.16 80.052 200.428 80.556 199.372 80.556ZM207.652 74.688C206.464 74.688 205.588 75.216 205.168 76.092V74.736H204.592V81H205.192V77.664C205.192 76.176 206.092 75.228 207.568 75.228C208.84 75.228 209.596 75.972 209.596 77.388V81H210.196V77.34C210.196 75.588 209.176 74.688 207.652 74.688ZM217.646 72.096V76.188C217.142 75.24 216.206 74.688 215.09 74.688C213.326 74.688 211.994 75.984 211.994 77.868C211.994 79.74 213.326 81.048 215.09 81.048C216.218 81.048 217.166 80.496 217.658 79.524V81H218.246V72.096H217.646ZM215.126 80.508C213.686 80.508 212.606 79.44 212.606 77.868C212.606 76.296 213.686 75.228 215.126 75.228C216.566 75.228 217.646 76.296 217.646 77.868C217.646 79.44 216.566 80.508 215.126 80.508ZM221.076 73.212C221.352 73.212 221.568 72.996 221.568 72.72C221.568 72.456 221.352 72.24 221.076 72.24C220.8 72.24 220.584 72.468 220.584 72.732C220.584 72.996 220.8 73.212 221.076 73.212ZM220.776 81H221.376V74.736H220.776V81ZM226.965 74.688C225.777 74.688 224.901 75.216 224.481 76.092V74.736H223.905V81H224.505V77.664C224.505 76.176 225.405 75.228 226.881 75.228C228.153 75.228 228.909 75.972 228.909 77.388V81H229.509V77.34C229.509 75.588 228.489 74.688 226.965 74.688ZM237.055 74.736V76.152C236.551 75.216 235.579 74.688 234.427 74.688C232.651 74.688 231.307 75.936 231.307 77.724C231.307 79.512 232.651 80.772 234.427 80.772C235.555 80.772 236.515 80.256 237.031 79.344V80.4C237.031 82.068 236.251 82.836 234.583 82.836C233.575 82.836 232.675 82.5 232.051 81.924L231.727 82.38C232.363 83.016 233.455 83.376 234.595 83.376C236.611 83.376 237.631 82.428 237.631 80.328V74.736H237.055ZM234.475 80.232C232.999 80.232 231.919 79.2 231.919 77.724C231.919 76.248 232.999 75.228 234.475 75.228C235.963 75.228 237.043 76.248 237.043 77.724C237.043 79.2 235.963 80.232 234.475 80.232ZM251.652 74.736L249.54 80.316L247.416 74.736H246.9L244.764 80.328L242.676 74.736H242.1L244.476 81H245.028L247.152 75.564L249.264 81H249.828L252.204 74.736H251.652ZM253.9 73.212C254.176 73.212 254.392 72.996 254.392 72.72C254.392 72.456 254.176 72.24 253.9 72.24C253.624 72.24 253.408 72.468 253.408 72.732C253.408 72.996 253.624 73.212 253.9 73.212ZM253.6 81H254.2V74.736H253.6V81ZM259.585 80.184C259.333 80.412 258.985 80.532 258.613 80.532C257.845 80.532 257.449 80.088 257.449 79.284V75.252H259.441V74.736H257.449V73.368H256.849V74.736H255.697V75.252H256.849V79.344C256.849 80.4 257.449 81.048 258.553 81.048C259.021 81.048 259.525 80.904 259.837 80.604L259.585 80.184ZM264.57 74.688C263.406 74.688 262.542 75.192 262.11 76.044V72.096H261.51V81H262.11V77.664C262.11 76.176 263.01 75.228 264.486 75.228C265.758 75.228 266.514 75.972 266.514 77.388V81H267.114V77.34C267.114 75.588 266.094 74.688 264.57 74.688ZM272.044 81.048C273.844 81.048 275.176 79.728 275.176 77.868C275.176 76.008 273.844 74.688 272.044 74.688C270.244 74.688 268.912 76.008 268.912 77.868C268.912 79.728 270.244 81.048 272.044 81.048ZM272.044 80.508C270.604 80.508 269.524 79.44 269.524 77.868C269.524 76.296 270.604 75.228 272.044 75.228C273.484 75.228 274.564 76.296 274.564 77.868C274.564 79.44 273.484 80.508 272.044 80.508ZM281.922 74.736V78.072C281.922 79.56 281.046 80.508 279.63 80.508C278.322 80.508 277.566 79.764 277.566 78.348V74.736H276.966V78.396C276.966 80.148 277.986 81.048 279.582 81.048C280.686 81.048 281.538 80.532 281.946 79.656V81H282.522V74.736H281.922ZM287.921 80.184C287.669 80.412 287.321 80.532 286.949 80.532C286.181 80.532 285.785 80.088 285.785 79.284V75.252H287.777V74.736H285.785V73.368H285.185V74.736H284.033V75.252H285.185V79.344C285.185 80.4 285.785 81.048 286.889 81.048C287.357 81.048 287.861 80.904 288.173 80.604L287.921 80.184ZM296.072 74.688C294.968 74.688 294.032 75.228 293.528 76.164V72.096H292.928V81H293.504V79.524C293.996 80.484 294.944 81.048 296.072 81.048C297.836 81.048 299.168 79.74 299.168 77.868C299.168 75.984 297.836 74.688 296.072 74.688ZM296.036 80.508C294.596 80.508 293.516 79.44 293.516 77.868C293.516 76.296 294.596 75.228 296.036 75.228C297.476 75.228 298.568 76.296 298.568 77.868C298.568 79.44 297.476 80.508 296.036 80.508ZM306.33 77.844C306.33 75.984 305.058 74.688 303.342 74.688C301.626 74.688 300.342 76.008 300.342 77.868C300.342 79.728 301.674 81.048 303.57 81.048C304.518 81.048 305.382 80.7 305.934 80.028L305.586 79.632C305.106 80.22 304.374 80.508 303.582 80.508C302.082 80.508 300.99 79.5 300.93 78.012H306.318C306.318 77.952 306.33 77.892 306.33 77.844ZM303.342 75.216C304.674 75.216 305.658 76.188 305.742 77.544H300.942C301.038 76.176 302.01 75.216 303.342 75.216ZM308.486 73.212C308.762 73.212 308.978 72.996 308.978 72.72C308.978 72.456 308.762 72.24 308.486 72.24C308.21 72.24 307.994 72.468 307.994 72.732C307.994 72.996 308.21 73.212 308.486 73.212ZM308.186 81H308.786V74.736H308.186V81ZM314.375 74.688C313.187 74.688 312.311 75.216 311.891 76.092V74.736H311.315V81H311.915V77.664C311.915 76.176 312.815 75.228 314.291 75.228C315.563 75.228 316.319 75.972 316.319 77.388V81H316.919V77.34C316.919 75.588 315.899 74.688 314.375 74.688ZM324.465 74.736V76.152C323.961 75.216 322.989 74.688 321.837 74.688C320.061 74.688 318.717 75.936 318.717 77.724C318.717 79.512 320.061 80.772 321.837 80.772C322.965 80.772 323.925 80.256 324.441 79.344V80.4C324.441 82.068 323.661 82.836 321.993 82.836C320.985 82.836 320.085 82.5 319.461 81.924L319.137 82.38C319.773 83.016 320.865 83.376 322.005 83.376C324.021 83.376 325.041 82.428 325.041 80.328V74.736H324.465ZM321.885 80.232C320.409 80.232 319.329 79.2 319.329 77.724C319.329 76.248 320.409 75.228 321.885 75.228C323.373 75.228 324.453 76.248 324.453 77.724C324.453 79.2 323.373 80.232 321.885 80.232ZM333.519 80.184C333.267 80.412 332.919 80.532 332.547 80.532C331.779 80.532 331.383 80.088 331.383 79.284V75.252H333.375V74.736H331.383V73.368H330.783V74.736H329.631V75.252H330.783V79.344C330.783 80.4 331.383 81.048 332.487 81.048C332.955 81.048 333.459 80.904 333.771 80.604L333.519 80.184ZM337.669 81.048C339.469 81.048 340.801 79.728 340.801 77.868C340.801 76.008 339.469 74.688 337.669 74.688C335.869 74.688 334.537 76.008 334.537 77.868C334.537 79.728 335.869 81.048 337.669 81.048ZM337.669 80.508C336.229 80.508 335.149 79.44 335.149 77.868C335.149 76.296 336.229 75.228 337.669 75.228C339.109 75.228 340.189 76.296 340.189 77.868C340.189 79.44 339.109 80.508 337.669 80.508ZM345.111 81.048C346.911 81.048 348.243 79.728 348.243 77.868C348.243 76.008 346.911 74.688 345.111 74.688C343.311 74.688 341.979 76.008 341.979 77.868C341.979 79.728 343.311 81.048 345.111 81.048ZM345.111 80.508C343.671 80.508 342.591 79.44 342.591 77.868C342.591 76.296 343.671 75.228 345.111 75.228C346.551 75.228 347.631 76.296 347.631 77.868C347.631 79.44 346.551 80.508 345.111 80.508ZM6.24 96.096V100.188C5.736 99.24 4.8 98.688 3.684 98.688C1.92 98.688 0.588 99.984 0.588 101.868C0.588 103.74 1.92 105.048 3.684 105.048C4.812 105.048 5.76 104.496 6.252 103.524V105H6.84V96.096H6.24ZM3.72 104.508C2.28 104.508 1.2 103.44 1.2 101.868C1.2 100.296 2.28 99.228 3.72 99.228C5.16 99.228 6.24 100.296 6.24 101.868C6.24 103.44 5.16 104.508 3.72 104.508ZM9.66966 97.212C9.94566 97.212 10.1617 96.996 10.1617 96.72C10.1617 96.456 9.94566 96.24 9.66966 96.24C9.39366 96.24 9.17766 96.468 9.17766 96.732C9.17766 96.996 9.39366 97.212 9.66966 97.212ZM9.36966 105H9.96966V98.736H9.36966V105ZM13.0746 100.104V98.736H12.4986V105H13.0986V101.736C13.0986 100.188 13.9266 99.264 15.3186 99.264C15.3666 99.264 15.4146 99.276 15.4626 99.276V98.688C14.2866 98.688 13.4586 99.192 13.0746 100.104ZM22.3612 101.844C22.3612 99.984 21.0892 98.688 19.3732 98.688C17.6572 98.688 16.3732 100.008 16.3732 101.868C16.3732 103.728 17.7052 105.048 19.6012 105.048C20.5492 105.048 21.4132 104.7 21.9652 104.028L21.6172 103.632C21.1372 104.22 20.4052 104.508 19.6132 104.508C18.1132 104.508 17.0212 103.5 16.9612 102.012H22.3492C22.3492 101.952 22.3612 101.892 22.3612 101.844ZM19.3732 99.216C20.7052 99.216 21.6892 100.188 21.7732 101.544H16.9732C17.0692 100.176 18.0412 99.216 19.3732 99.216ZM26.7013 105.048C27.6973 105.048 28.5613 104.652 29.0773 103.896L28.6333 103.572C28.1773 104.208 27.4813 104.508 26.7013 104.508C25.2253 104.508 24.1453 103.452 24.1453 101.868C24.1453 100.284 25.2253 99.228 26.7013 99.228C27.4813 99.228 28.1773 99.528 28.6333 100.164L29.0773 99.84C28.5613 99.072 27.6973 98.688 26.7013 98.688C24.8653 98.688 23.5333 99.996 23.5333 101.868C23.5333 103.728 24.8653 105.048 26.7013 105.048ZM33.7999 104.184C33.5479 104.412 33.1999 104.532 32.8279 104.532C32.0599 104.532 31.6639 104.088 31.6639 103.284V99.252H33.6559V98.736H31.6639V97.368H31.0639V98.736H29.9119V99.252H31.0639V103.344C31.0639 104.4 31.6639 105.048 32.7679 105.048C33.2359 105.048 33.7399 104.904 34.0519 104.604L33.7999 104.184ZM41.2552 105.048C43.0552 105.048 44.3872 103.728 44.3872 101.868C44.3872 100.008 43.0552 98.688 41.2552 98.688C39.4552 98.688 38.1232 100.008 38.1232 101.868C38.1232 103.728 39.4552 105.048 41.2552 105.048ZM41.2552 104.508C39.8152 104.508 38.7352 103.44 38.7352 101.868C38.7352 100.296 39.8152 99.228 41.2552 99.228C42.6952 99.228 43.7752 100.296 43.7752 101.868C43.7752 103.44 42.6952 104.508 41.2552 104.508ZM46.8246 100.104V98.736H46.2486V105H46.8486V101.736C46.8486 100.188 47.6766 99.264 49.0686 99.264C49.1166 99.264 49.1646 99.276 49.2126 99.276V98.688C48.0366 98.688 47.2086 99.192 46.8246 100.104ZM56.5013 105.048C58.3013 105.048 59.6333 103.728 59.6333 101.868C59.6333 100.008 58.3013 98.688 56.5013 98.688C54.7013 98.688 53.3693 100.008 53.3693 101.868C53.3693 103.728 54.7013 105.048 56.5013 105.048ZM56.5013 104.508C55.0613 104.508 53.9813 103.44 53.9813 101.868C53.9813 100.296 55.0613 99.228 56.5013 99.228C57.9413 99.228 59.0213 100.296 59.0213 101.868C59.0213 103.44 57.9413 104.508 56.5013 104.508ZM64.6387 98.688C63.5347 98.688 62.5987 99.228 62.0947 100.164V96.096H61.4947V105H62.0707V103.524C62.5627 104.484 63.5107 105.048 64.6387 105.048C66.4027 105.048 67.7347 103.74 67.7347 101.868C67.7347 99.984 66.4027 98.688 64.6387 98.688ZM64.6027 104.508C63.1627 104.508 62.0827 103.44 62.0827 101.868C62.0827 100.296 63.1627 99.228 64.6027 99.228C66.0427 99.228 67.1347 100.296 67.1347 101.868C67.1347 103.44 66.0427 104.508 64.6027 104.508ZM73.8325 98.736L71.3125 104.34L68.8165 98.736H68.1805L71.0005 105H71.6125L74.4445 98.736H73.8325ZM76.0564 97.212C76.3324 97.212 76.5484 96.996 76.5484 96.72C76.5484 96.456 76.3324 96.24 76.0564 96.24C75.7804 96.24 75.5644 96.468 75.5644 96.732C75.5644 96.996 75.7804 97.212 76.0564 97.212ZM75.7564 105H76.3564V98.736H75.7564V105ZM81.3333 105.048C83.1333 105.048 84.4653 103.728 84.4653 101.868C84.4653 100.008 83.1333 98.688 81.3333 98.688C79.5333 98.688 78.2013 100.008 78.2013 101.868C78.2013 103.728 79.5333 105.048 81.3333 105.048ZM81.3333 104.508C79.8933 104.508 78.8133 103.44 78.8133 101.868C78.8133 100.296 79.8933 99.228 81.3333 99.228C82.7733 99.228 83.8533 100.296 83.8533 101.868C83.8533 103.44 82.7733 104.508 81.3333 104.508ZM91.2107 98.736V102.072C91.2107 103.56 90.3347 104.508 88.9187 104.508C87.6107 104.508 86.8547 103.764 86.8547 102.348V98.736H86.2547V102.396C86.2547 104.148 87.2747 105.048 88.8707 105.048C89.9747 105.048 90.8267 104.532 91.2347 103.656V105H91.8107V98.736H91.2107ZM95.938 105.048C97.534 105.048 98.41 104.352 98.41 103.332C98.41 100.944 94.258 102.276 94.258 100.392C94.258 99.72 94.798 99.216 96.022 99.216C96.694 99.216 97.378 99.396 97.906 99.78L98.182 99.3C97.69 98.928 96.826 98.688 96.034 98.688C94.45 98.688 93.658 99.456 93.658 100.404C93.658 102.864 97.81 101.52 97.81 103.344C97.81 104.052 97.282 104.52 95.962 104.52C95.038 104.52 94.186 104.172 93.706 103.764L93.43 104.244C93.922 104.7 94.906 105.048 95.938 105.048ZM100.013 105.048C100.289 105.048 100.517 104.82 100.517 104.532C100.517 104.244 100.289 104.028 100.013 104.028C99.7365 104.028 99.5085 104.244 99.5085 104.532C99.5085 104.82 99.7365 105.048 100.013 105.048Z" fill="white"/>
</svg>
